<svg width="46" height="18" viewBox="0 0 46 18" fill="none" xmlns="http://www.w3.org/2000/svg">
<path d="M8.4682 3.5023C7.38113 3.5023 6.50416 4.1659 5.93779 4.1659C5.34401 4.1659 4.54926 3.53917 3.60835 3.53917C1.81788 3.53917 0 5.04147 0 7.85253C0 9.6129 0.675994 11.4654 1.50728 12.6728C2.21068 13.6774 2.841 14.5069 3.73624 14.5069C4.62234 14.5069 5.01515 13.9171 6.12049 13.9171C7.23497 13.9171 7.49075 14.4885 8.4682 14.4885C9.44565 14.4885 10.0942 13.5945 10.7063 12.7097C11.3823 11.6866 11.6746 10.6912 11.6837 10.6452C11.6289 10.6267 9.76538 9.86175 9.76538 7.70507C9.76538 5.84332 11.227 5.01382 11.3092 4.94931C10.35 3.53917 8.87928 3.5023 8.4682 3.5023ZM7.96577 2.31336C8.40425 1.76959 8.71485 1.03226 8.71485 0.285714C8.71485 0.184332 8.70571 0.0829493 8.68744 0C7.97491 0.0276498 7.09794 0.479263 6.57724 1.09677C6.1753 1.56682 5.79163 2.31336 5.79163 3.05991C5.79163 3.17051 5.8099 3.29032 5.81903 3.32719C5.86471 3.33641 5.93779 3.34562 6.01087 3.34562C6.65946 3.34562 7.48161 2.90323 7.96577 2.31336Z" fill="white"/>
<path d="M15.8205 1.04147V14.341H18.1774V9.98157H21.0367C23.7041 9.98157 25.5676 8.17511 25.5676 5.53917C25.5676 2.85714 23.768 1.04147 21.1371 1.04147H15.8205ZM18.1774 3.03226H20.516C22.2151 3.03226 23.1743 3.90783 23.1743 5.53917C23.1743 7.12442 22.1877 8.00922 20.5068 8.00922H18.1774V3.03226Z" fill="white"/>
<path d="M30.5357 12.7097C29.5309 12.7097 28.8092 12.2028 28.8092 11.3548C28.8092 10.5346 29.403 10.0737 30.6728 9.99078L32.9291 9.84332V10.6452C32.9291 11.8157 31.906 12.7097 30.5357 12.7097ZM29.8689 14.5069C31.1752 14.5069 32.2714 13.9355 32.8286 12.9585H32.9839V14.341H35.1672V7.45622C35.1672 5.31797 33.7239 4.0553 31.1569 4.0553C28.7818 4.0553 27.1284 5.18894 26.9457 6.96774H29.0833C29.2934 6.28571 30.0059 5.91705 31.0473 5.91705C32.2714 5.91705 32.9291 6.47005 32.9291 7.45622V8.30415L30.353 8.46083C27.9231 8.60829 26.562 9.65899 26.562 11.4839C26.562 13.3272 27.9414 14.5069 29.8689 14.5069Z" fill="white"/>
<path d="M38.2352 18C40.4733 18 41.5421 17.1705 42.3917 14.6636L46 4.25806H43.6066L41.2772 12.129H41.1219L38.7833 4.25806H36.2986L39.8704 14.3871L39.7516 14.8295C39.4593 15.7604 38.9203 16.129 37.9611 16.129C37.8059 16.129 37.4679 16.1198 37.34 16.0922V17.9631C37.4861 17.9908 38.0982 18 38.2352 18Z" fill="white"/>
</svg>
