<svg width="18" height="18" viewBox="0 0 18 18" fill="none" xmlns="http://www.w3.org/2000/svg">
<path fill-rule="evenodd" clip-rule="evenodd" d="M16 0H2C0.9 0 0 0.9 0 2V16C0 17.1 0.9 18 2 18H16C17.1 18 18 17.1 18 16V2C18 0.9 17.1 0 16 0ZM7.35595 13.6577C7.15715 13.8489 6.84285 13.8489 6.64405 13.6577L2.72744 9.89177C2.33038 9.50998 2.33038 8.87463 2.72744 8.49285C3.10307 8.13166 3.69692 8.13166 4.07256 8.49285L6.96308 11.2722C6.9837 11.292 7.0163 11.292 7.03692 11.2722L13.9274 4.64669C14.3031 4.2855 14.8969 4.2855 15.2726 4.64669C15.6696 5.02848 15.6696 5.66383 15.2726 6.04562L7.35595 13.6577Z" fill="#65B767"/>
</svg>
