<svg width="16" height="16" viewBox="0 0 16 16" fill="none" xmlns="http://www.w3.org/2000/svg">
<path fill-rule="evenodd" clip-rule="evenodd" d="M16 8C16 12.4183 12.4183 16 8 16C3.58172 16 0 12.4183 0 8C0 3.58172 3.58172 0 8 0C12.4183 0 16 3.58172 16 8ZM4.27312 10.4846C3.44493 11.3128 4.68722 12.5551 5.51542 11.7269L8 9.24229L10.4368 11.6791C11.265 12.5073 12.5073 11.265 11.6791 10.4368L9.24229 8L11.7269 5.51542C12.5551 4.68722 11.3128 3.44493 10.4846 4.27312L8 6.75771L5.5632 4.3209C4.735 3.49271 3.49271 4.735 4.3209 5.5632L6.75771 8L4.27312 10.4846Z" fill="#9395A4"/>
</svg>
