<svg width="47" height="21" viewBox="0 0 47 21" fill="none" xmlns="http://www.w3.org/2000/svg">
<path fill-rule="evenodd" clip-rule="evenodd" d="M22.2288 15.1975V9.81778V9.81672H25.058C26.2237 9.81672 27.2043 9.44041 27.9988 8.68566C28.8178 7.93196 29.2273 6.99171 29.2273 5.86594C29.2273 4.76562 28.8179 3.83172 27.9988 3.06531C27.1917 2.2989 26.2121 1.91516 25.058 1.91516H20.5164V15.1975H22.2288ZM22.2288 8.18531V3.54762V3.54656H25.0953C25.7782 3.54656 26.3428 3.78189 26.7895 4.25149C27.248 4.70943 27.4777 5.24793 27.4777 5.86593C27.4777 6.49666 27.248 7.04152 26.7895 7.4984C26.3428 7.95634 25.7782 8.18531 25.0953 8.18531H22.2288Z" fill="#5F6368"/>
<path fill-rule="evenodd" clip-rule="evenodd" d="M36.1706 6.82207C35.4377 6.14788 34.439 5.81079 33.1733 5.81079C31.547 5.81079 30.3186 6.40442 29.4868 7.59166L30.9951 8.53828C31.5535 7.73371 32.3096 7.33195 33.2658 7.33195C33.8987 7.33195 34.4496 7.53866 34.922 7.95314C35.393 8.36761 35.6292 8.87113 35.6292 9.46476V9.85485C34.9719 9.48384 34.1337 9.29833 33.117 9.29833C31.9258 9.29833 30.9738 9.57712 30.2601 10.1336C29.5464 10.6901 29.1902 11.4375 29.1902 12.3778C29.1902 13.2682 29.5284 14.0102 30.2048 14.6038C30.8803 15.1975 31.7216 15.4943 32.7267 15.4943C33.9051 15.4943 34.8485 14.9748 35.5558 13.936H35.6303V15.1975H37.2682V9.59514C37.2682 8.42062 36.9024 7.49626 36.1706 6.82207ZM31.5258 13.5279C31.1471 13.2311 30.9577 12.8601 30.9577 12.4149C30.9577 11.9198 31.1907 11.5073 31.6556 11.1735C32.1204 10.8396 32.7 10.6721 33.3955 10.6721C34.3507 10.6721 35.0952 10.882 35.6291 11.3029C35.6291 12.0195 35.3474 12.6438 34.7825 13.176C34.2177 13.7069 33.5764 13.9731 32.8564 13.9731C32.3479 13.9731 31.9044 13.8247 31.5258 13.5279Z" fill="#5F6368"/>
<path d="M46.6673 6.1076L40.9527 19.2044H39.1848L41.3068 14.6219L37.5469 6.1076H39.4082L42.1257 12.6375H42.1629L44.806 6.1076H46.6673Z" fill="#5F6368"/>
<path d="M15.3095 8.65804C15.3095 8.1206 15.2637 7.60224 15.1776 7.10614H7.95569V10.0456H12.0921C11.9144 11.0038 11.3773 11.8191 10.5626 12.365V14.2741H13.0312C14.4767 12.9449 15.3095 10.9806 15.3095 8.65804Z" fill="#4285F4"/>
<path d="M7.95572 16.1165C10.0223 16.1165 11.7624 15.4402 13.0313 14.2742L10.5626 12.365C9.87553 12.8261 8.99061 13.0954 7.95572 13.0954C5.95826 13.0954 4.26287 11.7534 3.65661 9.94495H1.11353V11.9113C2.3739 14.4045 4.96379 16.1165 7.95572 16.1165Z" fill="#34A853"/>
<path d="M3.65648 9.94499C3.5012 9.48387 3.41611 8.99201 3.41611 8.48425C3.41611 7.97649 3.5012 7.48463 3.65648 7.02351V5.05713H1.1134C0.592227 6.08749 0.297607 7.25142 0.297607 8.48425C0.297607 9.71708 0.592227 10.8811 1.1134 11.9114L3.65648 9.94499Z" fill="#FABB05"/>
<path d="M7.95572 3.87305C9.08421 3.87305 10.0957 4.25997 10.8934 5.0179V5.01896L13.0791 2.84057C11.7517 1.6088 10.0212 0.851929 7.95572 0.851929C4.96379 0.851929 2.3739 2.5639 1.11353 5.05712L3.65661 7.0235C4.26287 5.21507 5.95826 3.87305 7.95572 3.87305Z" fill="#E94235"/>
</svg>
