<svg width="32" height="32" viewBox="0 0 32 32" fill="none" xmlns="http://www.w3.org/2000/svg">
<path d="M22.069 11.7594V5.63862C22.069 2.52966 19.3463 0 16.0001 0C12.6539 0 9.93109 2.52966 9.93109 5.63862V11.7594C6.94296 13.7357 4.96558 17.1222 4.96558 20.9655C4.96558 27.0499 9.91565 32 16.0001 32C22.0845 32 27.0345 27.0499 27.0345 20.9655C27.0345 17.1222 25.0572 13.7357 22.069 11.7594ZM11.0345 11.1211V5.63862C11.0345 3.13821 13.2619 1.10345 16.0001 1.10345C18.7383 1.10345 20.9656 3.13821 20.9656 5.63862V11.1217C20.8619 11.0692 20.7559 11.0229 20.6511 10.9738C20.4343 10.8723 20.2141 10.7774 19.9901 10.6897C19.8461 10.6334 19.7016 10.5804 19.5559 10.5302C19.4125 10.4811 19.2701 10.432 19.1245 10.389C18.8834 10.3172 18.6395 10.256 18.394 10.2008C18.2875 10.1771 18.1805 10.1545 18.0729 10.1335C17.7843 10.0778 17.4941 10.0326 17.2017 10C17.1355 9.99283 17.0693 9.98841 17.0031 9.98234C16.6693 9.9509 16.3355 9.93103 16.0001 9.93103C15.6646 9.93103 15.3308 9.9509 14.9981 9.98179C14.9319 9.98786 14.8652 9.99228 14.7995 9.99945C14.5071 10.032 14.2169 10.0772 13.9283 10.133C13.8207 10.1534 13.7137 10.1766 13.6072 10.2003C13.3617 10.2554 13.1179 10.3167 12.8767 10.3884C12.7311 10.4314 12.5882 10.4811 12.4453 10.5297C12.2996 10.5799 12.1545 10.6328 12.0111 10.6891C11.7865 10.7763 11.567 10.8717 11.3501 10.9732C11.2442 11.0223 11.1383 11.0687 11.0345 11.1211ZM16.0001 30.8966C10.5242 30.8966 6.06902 26.4414 6.06902 20.9655C6.06902 17.3589 8.00833 14.2041 10.8927 12.4646C11.4003 12.1589 11.9311 11.9012 12.4779 11.6916C12.575 11.6546 12.6726 11.6182 12.7708 11.584C12.9214 11.5316 13.0726 11.4814 13.2254 11.4361C13.413 11.3815 13.6034 11.333 13.7954 11.2894C13.9355 11.2574 14.0762 11.2292 14.2174 11.2033C14.421 11.1663 14.6263 11.1332 14.8343 11.109C14.9281 11.0974 15.0224 11.0874 15.1167 11.0792C15.4086 11.0532 15.7021 11.0345 16.0001 11.0345C16.298 11.0345 16.5915 11.0532 16.8834 11.0792C16.9777 11.088 17.0715 11.0979 17.1659 11.109C17.3739 11.1332 17.5791 11.1663 17.7827 11.2033C17.9239 11.2292 18.0646 11.2574 18.2047 11.2894C18.3967 11.333 18.5871 11.3815 18.7747 11.4361C18.9275 11.4808 19.0787 11.5316 19.2293 11.584C19.3281 11.6182 19.4252 11.6546 19.5223 11.6916C20.069 11.9012 20.5998 12.1589 21.1074 12.4646C23.9918 14.2041 25.9311 17.3589 25.9311 20.9655C25.9311 26.4414 21.4759 30.8966 16.0001 30.8966Z" fill="#9395A4"/>
<path d="M22.6207 20.4138H20.933C20.8265 19.4577 20.4475 18.5843 19.8759 17.8698L21.0715 16.6742C21.2872 16.4585 21.2872 16.1098 21.0715 15.8941C20.8558 15.6783 20.5071 15.6783 20.2914 15.8941L19.0958 17.0897C18.3813 16.5181 17.5079 16.139 16.5518 16.0326V14.3448C16.5518 14.0397 16.3052 13.7931 16 13.7931C15.6949 13.7931 15.4483 14.0397 15.4483 14.3448V16.0326C14.4922 16.139 13.6188 16.5181 12.9043 17.0897L11.7087 15.8941C11.493 15.6783 11.1443 15.6783 10.9286 15.8941C10.7129 16.1098 10.7129 16.4585 10.9286 16.6742L12.1242 17.8698C11.5526 18.5843 11.1736 19.4577 11.0671 20.4138H9.37936C9.07426 20.4138 8.82764 20.6604 8.82764 20.9655C8.82764 21.2706 9.07426 21.5172 9.37936 21.5172H11.0671C11.1736 22.4734 11.5526 23.3468 12.1242 24.0612L10.9286 25.2568C10.7129 25.4726 10.7129 25.8212 10.9286 26.037C11.0362 26.1446 11.1774 26.1986 11.3187 26.1986C11.4599 26.1986 11.6012 26.1446 11.7087 26.037L12.9043 24.8414C13.6188 25.413 14.4922 25.792 15.4483 25.8985V27.5862C15.4483 27.8913 15.6949 28.1379 16 28.1379C16.3052 28.1379 16.5518 27.8913 16.5518 27.5862V25.8985C17.5079 25.792 18.3813 25.413 19.0958 24.8414L20.2914 26.037C20.3989 26.1446 20.5402 26.1986 20.6814 26.1986C20.8227 26.1986 20.9639 26.1446 21.0715 26.037C21.2872 25.8212 21.2872 25.4726 21.0715 25.2568L19.8759 24.0612C20.4475 23.3468 20.8265 22.4734 20.933 21.5172H22.6207C22.9258 21.5172 23.1725 21.2706 23.1725 20.9655C23.1725 20.6604 22.9258 20.4138 22.6207 20.4138ZM16 24.8276C13.8709 24.8276 12.138 23.0946 12.138 20.9655C12.138 18.8364 13.8709 17.1035 16 17.1035C18.1292 17.1035 19.8621 18.8364 19.8621 20.9655C19.8621 23.0946 18.1292 24.8276 16 24.8276Z" fill="#9395A4"/>
</svg>
