<svg width="68" height="61" viewBox="0 0 68 61" fill="none" xmlns="http://www.w3.org/2000/svg">
<path fill-rule="evenodd" clip-rule="evenodd" d="M67.0688 28.5569L67.9512 25.734L65.0334 25.8264C64.7871 25.8264 62.9954 25.7752 61.2566 24.5146C61.3877 24.5263 61.5163 24.5448 61.6499 24.5448C63.4383 24.5448 65.1712 23.4683 65.8637 21.9261L67.1184 19.1427C65.5443 19.1638 64.1056 18.9646 64.1056 18.9646C64.0938 18.9629 62.9593 18.8158 61.6482 17.4762C60.7078 16.5165 59.5439 16.0072 58.2841 16.0072C57.732 16.0072 57.2387 16.1081 56.8143 16.2417C56.8807 16.0165 56.942 15.7879 56.9798 15.5517C57.3798 12.9465 55.7049 10.9598 55.7041 10.9606L53.509 8.24362L52.1484 11.4363C52.1442 11.4455 51.7996 12.1943 51.1861 12.5599C51.0012 11.6203 50.5449 10.5665 49.5717 9.558C47.7354 7.65786 45.5017 7.3738 44.3318 7.3738C43.7906 7.3738 43.4032 7.43263 43.3099 7.4486L40.6618 7.96881C40.8148 7.37801 41.1408 6.346 41.735 5.41904L43.1964 3.1424L39.5189 3.56008L38.3473 1.0725L36.0791 2.24149L33.9815 0.169067L31.8897 2.24149L29.6156 1.0725L28.4466 3.56008L24.7707 3.14072L26.2338 5.41904C26.8297 6.346 27.1541 7.37465 27.3053 7.9646L24.7783 7.46625L24.6917 7.45196C24.5648 7.43263 24.1807 7.3738 23.6362 7.3738C22.4672 7.3738 20.2334 7.65786 18.4013 9.55632C17.4265 10.5648 16.9693 11.6203 16.7836 12.5599C16.1734 12.1977 15.8322 11.4615 15.8322 11.4615L14.4691 8.25034L12.2404 10.9842C11.9672 11.3371 10.6251 13.2045 10.9898 15.5542C11.0268 15.7887 11.089 16.0165 11.1546 16.2417C10.7318 16.1064 10.2385 16.0072 9.6872 16.0072C8.4258 16.0072 7.2618 16.5165 6.3198 17.4762C5.0121 18.8108 3.8851 18.9621 3.8952 18.9621C3.8952 18.9621 2.7018 19.1764 0.8563 19.1427L2.1043 21.9261C2.7993 23.4683 4.5322 24.5448 6.3181 24.5448C6.4525 24.5448 6.5811 24.5263 6.7131 24.5146C4.9785 25.7752 3.1867 25.8264 2.9708 25.8281L0 25.734L0.900002 28.5561C1.3538 30.0108 2.8666 32.4194 5.7642 32.679C5.4491 34.0002 4.7499 35.4818 3.2153 36.1196L1.0017 37.0306L2.2094 39.1333C2.8892 40.2662 4.4902 41.5932 6.7668 41.5932C7.2585 41.5915 7.7341 41.5411 8.193 41.4444C8.3098 41.9613 8.456 42.4806 8.6292 42.9949C9.3065 45.0144 8.7225 46.4212 8.7166 46.4364L7.6232 48.7265L10.062 49.3685C10.0931 49.3778 10.8302 49.5803 11.7521 49.5803C12.1706 49.5803 12.5715 49.5374 12.9455 49.4475C13.2287 49.382 13.5026 49.2937 13.764 49.187C14.08 49.7526 14.4632 50.2711 14.9103 50.7325C16.4734 52.3377 18.6887 53.1495 21.4948 53.1495H21.5032L23.5059 53.1234L19.3686 54.8446L22.51 56.364C23.6521 56.9195 25.0052 57.5775 26.3834 58.0809L25.991 59.1541L27.0742 59.6483C27.17 59.692 29.2534 60.6231 32.7142 60.8215C32.7142 60.8215 33.5495 60.8601 34.01 60.8601C34.4706 60.8601 35.2959 60.8181 35.2959 60.8181C38.7348 60.6147 40.8013 59.692 40.898 59.6483L41.9829 59.1533L41.5871 58.0784C43.004 57.5599 44.4083 56.8758 45.5025 56.3405L48.5859 54.8437L44.4612 53.1234L46.4723 53.1495C49.2818 53.1495 51.4979 52.3368 53.0585 50.7308C53.5039 50.272 53.8863 49.7551 54.204 49.187C54.467 49.2937 54.741 49.382 55.0251 49.4492C55.3982 49.5374 55.7991 49.5803 56.2167 49.5803C57.1235 49.5803 57.869 49.3803 57.8883 49.3736L60.3389 48.7265L59.2707 46.4792C59.2464 46.4212 58.6615 45.0144 59.3397 42.9941C59.5119 42.4789 59.6573 41.9604 59.7758 41.4444C60.2355 41.5411 60.7154 41.5915 61.2112 41.5932C64.1123 41.5932 65.5031 39.5527 65.7721 39.1089L66.9671 37.029L64.7543 36.1205C63.2164 35.4818 62.5189 34.001 62.2063 32.6816C65.0653 32.432 66.5999 30.0209 67.0688 28.5569Z" fill="#FFFFFE"/>
<path fill-rule="evenodd" clip-rule="evenodd" d="M33.9817 8.81396C31.6386 8.81649 29.8805 9.58461 29.499 10.488L33.9817 12.2579L38.466 10.488C38.087 9.58461 36.3289 8.81649 33.9817 8.81396Z" fill="#FFFFFE"/>
<path fill-rule="evenodd" clip-rule="evenodd" d="M34.0288 55.6506H34.0246H33.9859H33.9422H33.9389C32.5186 55.6607 30.5621 55.369 29.6209 55.0942L28.4872 58.1609C29.2343 58.4273 31.7673 58.9374 33.9859 58.9374C36.2012 58.9374 38.7342 58.4273 39.4805 58.1609L38.3484 55.0942C37.403 55.369 35.4482 55.6607 34.0288 55.6506Z" fill="#FFFFFE"/>
<path fill-rule="evenodd" clip-rule="evenodd" d="M42.6075 52.5991C41.7637 53.0756 39.8796 53.7942 38.7845 54.1261L39.7048 56.6599C41.399 56.1969 42.7991 55.6565 43.953 55.0766L42.0444 54.4421L42.6075 52.5991Z" fill="#FFFFFE"/>
<path fill-rule="evenodd" clip-rule="evenodd" d="M25.3601 52.5991L25.9248 54.4421L24.0146 55.0766C25.1677 55.6565 26.5728 56.1969 28.262 56.6599L29.1831 54.1261C28.0897 53.7942 26.203 53.0756 25.3601 52.5991Z" fill="#FFFFFE"/>
<path fill-rule="evenodd" clip-rule="evenodd" d="M33.9818 5.88155C35.7491 5.88155 37.4803 6.30428 38.8141 7.04636C38.9351 6.63792 39.1065 6.14292 39.3368 5.62271L38.8325 5.68322L38.3039 5.73869L38.0804 5.25715L37.4064 3.8335L36.1777 4.47305L35.6995 4.71677L35.3172 4.34027L33.9818 3.01917L32.6497 4.34027L32.2682 4.71677L31.79 4.47305L30.5555 3.8335L29.8899 5.25715L29.6621 5.73869L29.1343 5.68322L28.6318 5.62271C28.8629 6.14292 29.0318 6.63792 29.1545 7.04636C30.4924 6.30428 32.2228 5.88155 33.9818 5.88155Z" fill="#FFFFFE"/>
<path fill-rule="evenodd" clip-rule="evenodd" d="M60.9558 22.3333C61.1853 22.4132 61.4181 22.4476 61.6492 22.4476C62.6492 22.4476 63.6149 21.8014 63.9468 21.0626C63.9468 21.0626 62.1156 20.9509 60.144 18.9507C59.5171 18.3028 58.8532 18.1086 58.2834 18.1086C57.3984 18.1086 56.7345 18.5751 56.7345 18.5751C59.1154 19.8424 59.6003 21.8753 60.9558 22.3333Z" fill="#FFFFFE"/>
<path fill-rule="evenodd" clip-rule="evenodd" d="M6.31702 22.4474C6.54822 22.4474 6.78182 22.4129 7.00622 22.3331C8.36512 21.8751 8.85502 19.8421 11.2325 18.5765C11.2325 18.5765 10.5669 18.1084 9.68702 18.1084C9.11392 18.1084 8.45082 18.3025 7.82142 18.9513C5.85232 20.9515 4.02112 21.0632 4.02112 21.0632C4.35052 21.8003 5.31862 22.4474 6.31702 22.4474Z" fill="#FFFFFE"/>
<path fill-rule="evenodd" clip-rule="evenodd" d="M60.2378 36.9312C58.3965 36.0236 57.2334 33.6133 56.9519 32.746C56.646 37.5245 54.3139 40.8399 51.5868 44.0334C50.1715 45.689 49.6782 47.2975 49.6782 47.2975C49.6782 47.2975 49.9513 45.4747 51.1741 43.9906C53.7189 40.9349 56.1375 37.1279 56.3165 32.7284C56.4401 29.6567 55.6509 27.1666 54.4189 25.1135C55.108 27.2507 55.0097 29.8685 52.67 32.3124C52.67 32.3124 57.33 26.7279 50.8144 21.004C48.2075 18.8248 45.3535 17.4794 43.8853 16.5264C49.1916 18.2576 51.7834 16.3515 51.7834 16.3515C50.0892 17.8214 47.8949 17.7954 46.5343 17.5844C46.9041 17.7634 47.2873 17.9508 47.6999 18.1735C52.175 20.6031 56.1955 24.6026 56.8813 30.1408V30.0979C57.9217 35.5362 60.2378 36.9312 60.2378 36.9312ZM61.6001 30.5955C61.6421 30.598 61.6766 30.598 61.7194 30.598C64.2129 30.598 65.0584 27.9272 65.0584 27.9272H65.0096C64.5516 27.9272 60.8438 27.8188 58.2225 24.4874C56.4972 22.2965 55.0828 20.3703 52.2902 19.6131L52.0154 19.5636L51.9557 19.2845C51.8784 18.8576 52.1717 18.4584 52.8339 18.0265C56.6888 15.5036 54.071 12.284 54.071 12.284C54.071 12.284 52.9709 14.8573 50.5085 14.8573C50.4489 14.8573 50.3867 14.854 50.3253 14.854C50.0463 14.8397 49.7757 14.8296 49.5043 14.7716L49.0504 14.6834C49.0504 14.6834 49.753 12.774 48.0579 11.0209C46.7814 9.69727 45.2291 9.47205 44.3324 9.47205C43.8803 9.47205 43.5937 9.53087 43.5937 9.53087C44.4451 10.6427 45.0602 12.4891 44.0778 13.6287C43.2282 14.6086 41.1532 14.6556 41.1532 16.1137C41.1532 16.7331 41.7314 17.4542 42.7676 18.1021C45.8863 20.0661 48.9815 22.6722 50.2707 26.164C51.8784 30.5198 50.0656 33.4125 47.4797 35.0697C47.4797 35.0697 48.2916 35.8177 49.4673 35.9127C49.7068 35.9354 49.9404 35.9463 50.1589 35.9463C52.6423 35.9463 53.9273 34.7815 53.9273 34.7815C53.9273 34.7815 53.7147 36.3909 52.423 37.8851C51.2296 39.2642 49.6656 40.0777 47.2772 40.1105C47.2772 40.1105 47.2024 41.2198 48.2596 42.1778C48.9361 42.7838 50.4976 42.9796 50.4976 42.9796C50.4976 42.9796 47.573 43.5729 47.2495 47.8934C47.0738 50.2347 46.4755 51.0491 46.4755 51.0491H46.5284C53.3171 51.0491 53.1432 45.226 53.1432 45.226C53.1432 45.226 53.6155 46.9505 55.5089 47.4001C55.7383 47.4597 55.982 47.4833 56.2148 47.4833C56.8241 47.4833 57.3544 47.3396 57.3544 47.3396C57.3544 47.3396 56.3619 45.2478 57.346 42.3215C58.1629 39.8936 58.0309 38.0952 58.0309 38.0952C58.0309 38.0952 58.9445 39.4776 61.2127 39.4902H61.2362C63.1246 39.4902 63.9465 38.059 63.9465 38.059C59.421 36.1791 59.8672 30.1164 59.8672 30.1164C59.8672 30.1164 60.4555 30.5543 61.6001 30.5955Z" fill="#FFFFFE"/>
<path fill-rule="evenodd" clip-rule="evenodd" d="M16.3791 44.0336C13.6529 40.84 11.3208 37.5247 11.0123 32.7453C10.7308 33.6135 9.57114 36.0237 7.73064 36.9314C7.73064 36.9314 10.0442 35.5363 11.0838 30.0981V30.1401C11.7721 24.6035 15.7917 20.6032 20.2676 18.1737C20.6778 17.9509 21.0643 17.7635 21.4324 17.5837C20.0718 17.7955 17.8776 17.8207 16.1842 16.3525C16.1842 16.3525 18.7759 18.2577 24.0805 16.5265C22.6124 17.4795 19.76 18.825 17.154 21.0033C10.6367 26.7281 15.2984 32.3125 15.2984 32.3125C12.9537 29.8686 12.8604 27.2516 13.5495 25.1137C12.3141 27.1668 11.525 29.6569 11.6527 32.7277C11.8309 37.128 14.2479 40.9342 16.7876 43.9915C18.0171 45.4748 18.2927 47.2977 18.2927 47.2977C18.2927 47.2977 17.7935 45.6891 16.3791 44.0336ZM17.47 42.9797C17.47 42.9797 19.0323 42.7839 19.7105 42.178C20.766 41.2182 20.6904 40.1106 20.6904 40.1106C18.302 40.0778 16.7388 39.2643 15.5387 37.886C14.2546 36.391 14.042 34.7816 14.042 34.7816C14.042 34.7816 15.3253 35.9464 17.8061 35.9464C18.0288 35.9464 18.2608 35.9355 18.5003 35.9128C19.6777 35.8178 20.4912 35.0707 20.4912 35.0707C17.9019 33.4118 16.0892 30.5208 17.696 26.1642C18.9844 22.6731 22.0787 20.0654 25.1983 18.1022C26.2345 17.4543 26.8118 16.7332 26.8118 16.1147C26.8118 14.6549 24.7394 14.6078 23.8906 13.6288C22.9082 12.4892 23.5234 10.6428 24.373 9.53015C24.373 9.53015 24.0898 9.47217 23.6351 9.47217C22.7393 9.47217 21.187 9.69739 19.9105 11.021C18.2129 12.7733 18.9171 14.6835 18.9171 14.6835L18.4633 14.7726C18.1919 14.8297 17.9187 14.8398 17.6414 14.8549C17.5775 14.8549 17.5212 14.8574 17.4616 14.8574C14.9925 14.8574 13.8983 12.2841 13.8983 12.2841C13.8983 12.2841 11.2813 15.5029 15.1345 18.0266C15.7976 18.4569 16.0892 18.8577 16.0119 19.2847L15.9522 19.5637L15.6723 19.6124C12.8839 20.3713 11.4678 22.2975 9.74174 24.4876C7.12214 27.8189 3.41774 27.9265 2.95714 27.9265H2.90674C2.90674 27.9265 3.75214 30.5981 6.24734 30.5981C6.28684 30.5981 6.32464 30.5981 6.36584 30.5956C7.51384 30.5544 8.10124 30.1157 8.10124 30.1157C8.10124 30.1157 8.54494 36.1792 4.02114 38.0592C4.02114 38.0592 4.84474 39.4912 6.73224 39.4912H6.75494C9.02484 39.4778 9.93754 38.0953 9.93754 38.0953C9.93754 38.0953 9.80554 39.8938 10.619 42.3217C11.6031 45.2488 10.6157 47.3405 10.6157 47.3405C10.6157 47.3405 11.1434 47.4826 11.7519 47.4826C11.9889 47.4826 12.2309 47.4599 12.457 47.4002C14.3496 46.9506 14.8227 45.2261 14.8227 45.2261C14.8227 45.2261 14.6496 51.0492 21.4392 51.0492H21.4879C21.4879 51.0492 20.8946 50.2349 20.7198 47.8935C20.3971 43.573 17.47 42.9797 17.47 42.9797Z" fill="#FFFFFE"/>
<path fill-rule="evenodd" clip-rule="evenodd" d="M32.4502 21.5241H34.052H35.6505V22.6233C35.274 22.162 34.5412 22.2552 34.5412 22.2552V23.8386C34.5412 23.8386 34.5689 24.6176 34.842 24.9546H34.052H33.2579C33.5352 24.6176 33.5604 23.8386 33.5604 23.8386V22.2552C33.5604 22.2552 32.8293 22.162 32.4502 22.6233V21.5241ZM28.9626 21.6888C29.0744 21.8082 29.1836 21.9384 29.2895 22.0678C29.3147 22.0998 29.3374 22.1267 29.3626 22.162C29.4601 22.2905 29.5576 22.4284 29.6534 22.5696C29.6744 22.5964 29.6946 22.6301 29.7173 22.662C29.8307 22.8343 29.9383 23.0124 30.045 23.1948C31.0249 24.8857 32.5906 25.8959 33.9815 25.8984C35.374 25.8959 36.9388 24.8857 37.9212 23.1948C38.0297 23.0074 38.1397 22.825 38.2532 22.6553C38.27 22.6301 38.2877 22.6049 38.3036 22.5805C38.4003 22.4343 38.5011 22.2931 38.6078 22.1561C38.6297 22.1267 38.6515 22.0998 38.6717 22.0737C38.781 21.9384 38.8936 21.8073 39.0087 21.6846C39.028 21.6653 39.0449 21.6468 39.0633 21.6308C39.5617 21.1207 40.1567 20.7316 40.9349 20.5156L40.5887 20.3148H40.5693L39.1911 19.5139L37.775 18.7029L33.9924 20.7619L33.9815 20.7535L33.9747 20.7619L30.1913 18.7029L28.776 19.5139L27.3952 20.3148H27.3793L27.0297 20.5156C27.8087 20.7316 28.4012 21.1165 28.9021 21.6275C28.9239 21.6468 28.9391 21.6703 28.9626 21.6888Z" fill="#FFFFFE"/>
<path fill-rule="evenodd" clip-rule="evenodd" d="M32.7766 14.5457V15.5785L32.5783 15.4878C32.569 15.4802 32.2774 15.4138 31.7698 15.0129C30.9319 14.3616 30.9151 13.7624 30.9151 13.7624L32.7766 14.5457ZM33.6548 19.3948V12.9649L29.5621 11.5774L30.6412 17.8073L33.6548 19.3948Z" fill="#FFFFFE"/>
<path fill-rule="evenodd" clip-rule="evenodd" d="M35.1904 14.5457L37.0518 13.7624C37.0518 13.7624 37.0359 14.3616 36.1946 15.0129C35.6896 15.4138 35.3971 15.4802 35.3879 15.4878L35.1904 15.5785V14.5457ZM37.3242 17.8073L38.3998 11.5774L34.3105 12.9649V19.3948L37.3242 17.8073Z" fill="#FFFFFE"/>
<path fill-rule="evenodd" clip-rule="evenodd" d="M27.8676 34.2976C28.2651 34.4421 28.7492 34.4724 28.9971 34.4724C29.0055 34.4421 29.0198 34.4043 29.0315 34.3581C29.0534 34.285 29.0744 34.2119 29.0895 34.1329C29.1584 33.7757 29.1837 33.3732 29.1887 33.1135C29.0223 33.0076 28.7845 32.8235 28.6517 32.5454C28.5004 32.226 28.2828 32.0764 27.9668 32.0764C27.555 32.0764 27.1138 32.3243 26.9238 32.4412C26.7734 33.3303 27.4281 34.1362 27.8676 34.2976Z" fill="#FFFFFE"/>
<path fill-rule="evenodd" clip-rule="evenodd" d="M36.9191 30.8875C36.1594 31.7144 34.671 33.1532 34.5996 33.2246L34.5097 33.3162L29.8085 33.2414C29.8051 33.707 29.7295 34.1028 29.6564 34.3936C29.6446 34.4415 29.6312 34.4919 29.6185 34.5432L35.2097 35.5483C35.7921 35.1415 37.3931 33.9717 38.015 33.5137C37.5628 32.854 37.52 32.0699 37.6217 31.5186C37.325 31.3295 37.0989 31.1152 36.9191 30.8875Z" fill="#FFFFFE"/>
<path fill-rule="evenodd" clip-rule="evenodd" d="M37.5562 25.2338C36.4729 26.3078 35.4342 26.7061 34.5064 26.7977C34.3375 26.8154 34.1677 26.8272 33.9946 26.8272H33.9811H33.9719C33.7979 26.8272 33.6273 26.8154 33.4592 26.7977C33.297 26.7843 33.1273 26.7574 32.9567 26.7196C32.8962 26.9616 32.8189 27.465 33.039 27.9457C33.2357 28.3794 33.6349 28.7021 34.2173 28.9172L34.4131 28.9937L34.4156 29.2046C34.4156 29.2668 34.4627 30.6358 35.9527 31.0149C36.1956 30.7644 36.4166 30.5375 36.5805 30.3476C36.2763 29.6307 36.4359 28.8987 36.878 28.5407C36.8587 28.6164 36.6645 30.4115 38.1033 31.0787L38.3403 31.1913L38.2697 31.4443C38.2462 31.5191 37.7663 33.2571 39.5084 33.9025L39.8177 34.0201L39.6807 34.3193C39.6505 34.3857 38.9672 35.9615 40.5766 36.8565H44.0659V34.0865C42.8246 33.9353 42.2994 32.9377 42.1641 32.2318C41.5867 32.1326 41.1405 31.883 40.8337 31.4779C40.1026 30.5131 40.7321 29.6307 40.7405 29.5837C40.7388 29.5912 40.7405 30.5308 41.3203 31.1107C41.6077 31.3897 41.9481 31.6073 42.4624 31.6561L42.7171 31.6788L42.7389 31.9385C42.7431 31.9931 42.8826 33.2663 44.0659 33.4655L44.0626 27.8062C44.0626 26.9297 44.318 26.0481 44.6265 25.2338H37.5562Z" fill="#FFFFFE"/>
<path fill-rule="evenodd" clip-rule="evenodd" d="M28.165 27.827L28.0701 31.4298L28.4802 31.4919L29.4811 28.0345L28.9735 26.9714L28.165 27.827Z" fill="#FFFFFE"/>
<path fill-rule="evenodd" clip-rule="evenodd" d="M30.3344 41.1678C30.2184 41.1644 30.1327 41.0652 30.1394 40.9484C30.1495 40.8358 30.2445 40.7476 30.3596 40.7585C30.4764 40.7627 30.5596 40.866 30.5554 40.9753C30.5445 41.0904 30.447 41.177 30.3344 41.1678ZM39.2082 44.3571C39.2384 44.3571 39.2737 44.3613 39.3065 44.3697C39.9301 44.547 40.0881 46.7934 41.1806 46.9951C41.2881 47.0169 41.3865 47.0236 41.473 47.0236C41.7899 47.0236 41.9781 46.8892 42.1807 46.648C42.1807 46.648 41.631 45.7849 41.2201 45.2017C40.673 44.4377 40.2494 43.5158 39.2317 43.5158C39.2082 43.5158 39.1779 43.5158 39.1535 43.5192C38.8182 43.536 38.6115 43.6999 38.6115 43.6999C38.1997 43.441 37.8148 43.3528 37.4685 43.3528C36.8315 43.3528 36.3357 43.6452 36.0878 43.6452H36.0785L33.8061 43.4209C33.4514 43.3872 33.1699 43.0292 33.0691 42.8897C33.0438 42.8511 33.0304 42.8284 33.0304 42.8284C33.0304 42.7662 33.0304 42.7032 33.0262 42.6477C32.9497 40.7887 31.511 39.9946 30.9991 39.9819C30.9991 39.9819 31.0597 39.6281 30.921 39.4937L30.4193 40.1013L28.7755 39.2769L29.9487 40.6467L28.9553 41.7619C28.8301 41.8888 28.846 42.0603 28.899 42.1334L29.3276 42.5132L29.8713 42.1821C29.8982 42.1628 29.9487 42.1561 30.0083 42.1561C30.1588 42.1561 30.3848 42.1956 30.5874 42.1956C30.8101 42.1956 31.0017 42.1477 31.0244 41.9392C30.9563 42.6284 30.3167 43.8251 30.7369 44.7663L31.0479 45.4765L29.0393 45.1865L28.0989 46.7749C27.809 47.3035 27.7636 47.8741 28.0426 48.1868L28.3939 48.6255C28.3939 48.6255 28.8872 48.1036 28.9982 47.759L28.8385 47.5834C28.704 47.4354 28.7099 47.3035 28.7931 47.1438L29.3822 46.1664L31.7538 46.7253L31.879 46.5118C32.0404 46.2438 32.2715 46.1648 32.5253 46.1648C32.6312 46.1648 32.7371 46.1774 32.8489 46.1942C33.2892 46.2816 34.0137 46.3984 34.7381 46.3984C35.5323 46.3984 36.3214 46.2572 36.7416 45.7849C37.6013 47.0581 39.3409 47.2606 39.204 47.9077L38.7459 50.0886C39.0485 50.076 39.3409 50.0558 39.6183 50.0171L40.0544 47.7481C40.1023 47.501 40.1477 47.1699 40.1477 47.1699C39.9805 46.9976 39.5737 46.6396 39.3443 46.2001C39.0376 45.6109 39.204 45.3025 38.9182 44.5352C38.9182 44.5352 39.0065 44.3571 39.2082 44.3571Z" fill="#FFFFFE"/>
<path fill-rule="evenodd" clip-rule="evenodd" d="M27.0969 46.4208C27.0969 46.4208 27.8835 46.0965 27.9533 45.8679L27.8483 45.604C27.7735 45.4334 27.7844 45.2485 27.9281 45.1476L28.7761 44.561L30.193 44.8333C30.193 44.8333 29.9366 44.5123 29.9619 44.0837L28.6088 43.7971L27.3331 44.5745C26.786 44.9829 26.7465 45.6519 26.9272 46.0494L27.0969 46.4208Z" fill="#FFFFFE"/>
<path fill-rule="evenodd" clip-rule="evenodd" d="M37.1226 50.1175C37.3756 50.1066 37.6571 50.1032 37.9639 50.1032C37.9639 50.1032 38.6933 47.9695 38.7345 47.9022C38.3261 47.7215 37.4764 47.2711 37.1487 47.0652C37.3664 47.3896 37.8916 47.7585 37.7882 48.0443L37.1226 50.1175Z" fill="#FFFFFE"/>
<path fill-rule="evenodd" clip-rule="evenodd" d="M44.0655 37.4672H23.9027V45.0509C23.9027 48.1537 26.1474 50.095 29.4594 50.095C32.2268 50.095 32.9571 50.2026 33.9858 51.2245C34.6951 50.516 35.2817 50.253 36.4868 50.1547L36.5145 50.0362L37.1507 48.0722C37.1154 48.0276 36.0758 46.8477 36.0758 46.8477C35.664 46.9847 35.3178 47.0074 34.7371 47.0074C34.1404 47.0074 33.4672 46.9385 32.7361 46.7998C32.6621 46.7838 32.5932 46.7763 32.5252 46.7763C32.4352 46.7763 32.4293 46.7838 32.4058 46.8284L32.2798 47.0368L32.0495 47.4183L31.6133 47.3183L29.6779 46.862L29.4132 47.2998L29.4527 47.3469L29.688 47.6057L29.5829 47.9444C29.4409 48.3856 28.9787 48.9025 28.8383 49.0445L28.3551 49.5639L27.9139 49.0067L27.5828 48.5915C27.2348 48.2016 27.1542 47.6057 27.35 46.9805C27.3458 46.9847 27.3391 46.988 27.3307 46.9897L26.7852 47.2149L26.5398 46.6813L26.3676 46.304C26.0709 45.6384 26.1801 44.6652 26.9802 44.0769L28.5375 43.1978L30.0191 43.4895C30.0552 43.3474 30.1082 42.8382 30.151 42.7079C30.1216 42.7045 30.0956 42.6986 30.0661 42.6986L29.2123 43.0172L28.3879 42.449C28.3879 42.449 28.066 42.1389 28.3585 41.828L29.1552 40.6203L27.134 38.0832L30.2401 39.3589L30.4468 39.1026L30.8662 38.6017L31.3419 39.0538C31.4763 39.1833 31.5537 39.3429 31.5915 39.5034C32.447 39.8362 33.9816 40.8195 34.1169 42.4188L33.637 42.6104V42.6222C33.7471 42.7524 33.8379 42.8062 33.8664 42.8104L36.0834 43.0289C36.1405 43.0188 36.2095 42.9945 36.2885 42.9709C36.5641 42.8768 36.9767 42.7415 37.4684 42.7415C37.8676 42.7415 38.2533 42.8331 38.6256 43.0062C38.7618 42.955 38.9298 42.9171 39.1248 42.9045L39.2315 42.902C40.4182 42.902 41.0098 43.7878 41.4821 44.4963C41.562 44.619 41.6401 44.7341 41.7225 44.8484C42.136 45.4333 42.678 46.2888 42.6999 46.3258L42.9444 46.7082L42.6452 47.0561C42.415 47.3234 42.0679 47.636 41.4737 47.636C41.351 47.636 41.2174 47.6225 41.072 47.5948C40.9459 47.5704 40.83 47.5335 40.7199 47.4872C40.7031 47.6041 40.6779 47.7436 40.6568 47.8637L40.2677 49.8925C42.5931 49.3201 44.0697 47.5654 44.0697 45.0509L44.0655 37.4672Z" fill="#FFE52B"/>
<path fill-rule="evenodd" clip-rule="evenodd" d="M23.9027 36.8566H39.5854C38.8013 36.0473 38.813 35.0229 39.0122 34.3573C38.7845 34.248 38.5962 34.1177 38.4281 33.9724C37.8146 34.4245 35.9447 35.7868 35.4556 36.1288L35.3506 36.1986L29.1963 35.0867H29.0711C28.9232 35.0867 28.7081 35.0808 28.4711 35.0523C28.4047 35.3304 28.1652 35.5195 27.8904 35.5195C27.8593 35.5195 27.8248 35.517 27.792 35.5103C27.6324 35.4825 27.492 35.4019 27.3987 35.2666C27.3029 35.1338 27.2651 34.9775 27.2912 34.8144L27.3139 34.6816C26.6802 34.2354 26.0936 33.2353 26.3533 32.1823L26.3785 32.0722L26.4684 32.0075C26.481 31.9983 26.5869 31.9251 26.7466 31.8352L26.2995 31.7663C26.1323 31.7369 26.0196 31.5814 26.0457 31.415C26.0743 31.2486 26.2323 31.1293 26.3961 31.1612L27.4618 31.3293L27.5593 27.5778L29.1442 25.9012L30.1342 27.9837L29.0896 31.5923L30.0309 31.7411C30.1973 31.7671 30.3099 31.9226 30.2847 32.0932C30.2603 32.2445 30.1309 32.3462 29.9838 32.3462C29.967 32.3462 29.951 32.3462 29.9342 32.3445L29.1695 32.221C29.1795 32.2445 29.1938 32.2571 29.2039 32.2815C29.2846 32.4504 29.4661 32.5697 29.572 32.6227L34.2631 32.6975C34.4623 32.5033 34.9539 32.0218 35.4615 31.5117C34.3068 31.073 33.8866 30.0788 33.8169 29.4174C33.1723 29.1426 32.726 28.7308 32.4789 28.1963C32.1781 27.5324 32.2848 26.8685 32.3663 26.5449C31.7402 26.3172 31.0822 25.9012 30.4099 25.2339H23.343C23.6464 26.0482 23.9027 26.929 23.9027 27.8055V36.8566Z" fill="#FFE52B"/>
<path fill-rule="evenodd" clip-rule="evenodd" d="M30.3594 40.7582C30.2443 40.7473 30.1493 40.8372 30.1401 40.949C30.1317 41.065 30.2183 41.1641 30.3342 41.1675C30.4468 41.1767 30.5443 41.091 30.5553 40.9767C30.5595 40.8658 30.4763 40.7633 30.3594 40.7582Z" fill="#1A1919"/>
<path fill-rule="evenodd" clip-rule="evenodd" d="M39.7047 56.6608L38.7845 54.1262C39.8795 53.7942 41.7637 53.0757 42.6083 52.5992L42.0452 54.4422L43.9529 55.0767C42.799 55.6565 41.3998 56.1961 39.7047 56.6608ZM33.9866 58.9374C31.7671 58.9374 29.2342 58.4273 28.4871 58.1609L29.6208 55.0935C30.562 55.3691 32.5193 55.6599 33.9387 55.6506H33.9421H33.9866H34.0244H34.0286C35.4489 55.6599 37.4028 55.3691 38.3483 55.0935L39.4803 58.1609C38.734 58.4273 36.2011 58.9374 33.9866 58.9374ZM24.0145 55.0767L25.9255 54.4422L25.3608 52.5992C26.2029 53.0757 28.0904 53.7942 29.1837 54.1262L28.2618 56.6608C26.5726 56.1961 25.1675 55.6565 24.0145 55.0767ZM44.0386 54.5136L42.8772 54.0682L43.1982 52.8672L43.5512 51.5604C43.5512 51.5604 41.4931 52.6773 38.5928 53.5152C37.7701 53.7505 37.1474 53.8581 37.1474 53.8581V54.7497C37.1474 54.7497 35.596 55.0187 34.0286 55.0187H34.0102H33.9866H33.9564H33.9387C32.3697 55.0187 30.8208 54.7497 30.8208 54.7497V53.8581C30.8208 53.8581 30.1973 53.7505 29.3754 53.5152C26.476 52.6773 24.4195 51.5604 24.4195 51.5604L24.7674 52.8672L25.0944 54.0682L23.9296 54.5136L22.637 54.9968C24.1178 55.712 26.1701 56.7524 28.0484 57.2667L27.6055 58.4777C27.6055 58.4777 29.988 59.5619 33.9564 59.5728V59.5745H33.9681H33.9866H34.0009H34.0102V59.5728C37.9836 59.5619 40.3636 58.4777 40.3636 58.4777L39.919 57.2667C41.7973 56.7524 43.8537 55.712 45.3278 54.9968L44.0386 54.5136Z" fill="#1A1919"/>
<path fill-rule="evenodd" clip-rule="evenodd" d="M29.1341 5.6838L29.6619 5.73843L29.8896 5.25688L30.5552 3.83493L31.7898 4.47363L32.268 4.71819L32.6495 4.34001L33.9815 3.0189L35.3169 4.34001L35.6993 4.71819L36.1775 4.47363L37.4062 3.83493L38.0802 5.25688L38.3037 5.73843L38.8323 5.6838L39.3366 5.62246C39.1063 6.1435 38.9348 6.6385 38.8138 7.04693C37.4801 6.30402 35.7489 5.8813 33.9815 5.8813C32.2226 5.8813 30.4922 6.30402 29.1543 7.04693C29.0316 6.6385 28.8627 6.1435 28.6316 5.62246L29.1341 5.6838ZM33.9815 6.62337C36.3464 6.62337 38.2373 7.40746 39.2828 8.24198C39.2828 8.24198 39.5929 6.37293 40.6526 4.72407L38.7483 4.94089L37.7516 2.82477L35.838 3.81056L33.9815 1.97681L32.1301 3.81056L30.2124 2.82477L29.2173 4.94089L27.3138 4.72407C28.3744 6.37293 28.6837 8.24198 28.6837 8.24198C29.7358 7.40746 31.6209 6.62337 33.9815 6.62337Z" fill="#1A1919"/>
<path fill-rule="evenodd" clip-rule="evenodd" d="M63.9473 38.059C63.9473 38.059 63.1246 39.491 61.2354 39.491H61.2127C58.9453 39.4776 58.0309 38.0951 58.0309 38.0951C58.0309 38.0951 58.162 39.8944 57.346 42.3215C56.3619 45.2494 57.3544 47.3395 57.3544 47.3395C57.3544 47.3395 56.825 47.4832 56.2157 47.4832C55.982 47.4832 55.7383 47.4605 55.5089 47.4C53.6155 46.9504 53.1432 45.2259 53.1432 45.2259C53.1432 45.2259 53.3171 51.049 46.5284 51.049H46.4754C46.4754 51.049 47.0738 50.2347 47.2503 47.8933C47.573 43.5737 50.4976 42.9795 50.4976 42.9795C50.4976 42.9795 48.937 42.7837 48.2596 42.1778C47.2016 41.2189 47.2772 40.1104 47.2772 40.1104C49.6656 40.0776 51.2304 39.265 52.4229 37.885C53.7146 36.3916 53.9264 34.7823 53.9264 34.7823C53.9264 34.7823 52.6414 35.9462 50.1589 35.9462C49.9404 35.9462 49.7068 35.9361 49.4673 35.9126C48.2915 35.8176 47.4806 35.0705 47.4806 35.0705C50.0656 33.4133 51.8792 30.5198 50.2707 26.1648C48.9824 22.673 45.8863 20.066 42.7684 18.102C41.7314 17.4541 41.1532 16.733 41.1532 16.1145C41.1532 14.6547 43.2281 14.6085 44.0786 13.6294C45.0602 12.489 44.4442 10.6427 43.5937 9.53081C43.5937 9.53081 43.8803 9.47198 44.3324 9.47198C45.2291 9.47198 46.7822 9.69721 48.0579 11.0208C49.753 12.7731 49.0504 14.6841 49.0504 14.6841L49.5042 14.7724C49.7757 14.8295 50.0455 14.8396 50.3262 14.8547C50.3867 14.8547 50.4489 14.8581 50.5085 14.8581C52.9709 14.8581 54.071 12.284 54.071 12.284C54.071 12.284 56.6888 15.5027 52.8347 18.0264C52.1717 18.4584 51.8792 18.8576 51.9557 19.2845L52.0162 19.5635L52.2902 19.6131C55.0828 20.3703 56.4972 22.2973 58.2225 24.4882C60.8446 27.8187 64.5516 27.9263 65.0088 27.9263H65.0583C65.0583 27.9263 64.2129 30.5979 61.7194 30.5979C61.6774 30.5979 61.6421 30.5979 61.6009 30.5954C60.4555 30.5542 59.8672 30.1164 59.8672 30.1164C59.8672 30.1164 59.4209 36.1799 63.9473 38.059ZM61.7194 31.4156C64.7768 31.4156 65.7996 28.3062 65.8416 28.1725L66.1836 27.0767L65.0373 27.1119H65.0331C64.6289 27.1119 61.2547 27.022 58.8638 23.9823L58.6377 23.7008C57.0746 21.7141 55.5929 19.8232 52.9432 18.9609C53.0196 18.8912 53.1297 18.8071 53.2802 18.7096C54.6861 17.7852 55.5038 16.6608 55.7097 15.3573C56.0106 13.3958 54.7584 11.831 54.7029 11.7671L53.8525 10.7141L53.3196 11.9629C53.2844 12.0411 52.3902 14.0404 50.5085 14.0404H50.3682C50.2396 14.0328 50.1161 14.0278 49.9959 14.0185C50.0623 13.1269 49.8992 11.7469 48.647 10.451C47.1419 8.89379 45.2964 8.66016 44.3324 8.66016C43.8164 8.66016 43.4744 8.72319 43.4366 8.72739L42.1508 8.98203L42.9441 10.0283C43.566 10.8334 44.1299 12.3209 43.4609 13.0975C43.2466 13.3454 42.8071 13.5446 42.3869 13.7462C41.5205 14.1446 40.3372 14.7009 40.3372 16.1145C40.3372 17.0288 41.0481 17.9852 42.334 18.7987C46.141 21.193 48.489 23.6907 49.5042 26.4489C51.0733 30.6904 49.0252 33.1099 47.0377 34.3856L46.1452 34.9596L46.9259 35.6764C47.0318 35.7681 47.9856 36.6101 49.3967 36.7312C49.6639 36.748 49.9194 36.7631 50.1589 36.7631C51.0623 36.7631 51.833 36.6211 52.4591 36.4303C52.2876 36.7311 52.0742 37.0396 51.8086 37.348C50.6724 38.6649 49.274 39.265 47.2637 39.2969L46.5158 39.3087L46.4586 40.0583C46.4519 40.2096 46.3956 41.5996 47.7108 42.7803C47.9117 42.9644 48.1546 43.1148 48.4109 43.2375C47.5184 44.0401 46.6116 45.4394 46.4359 47.8353C46.288 49.8355 45.8115 50.5759 45.8048 50.5826L44.9804 51.8432L46.4721 51.8642C48.9387 51.8642 50.8262 51.1835 52.1347 49.8355C52.9079 49.0371 53.3499 48.1362 53.6113 47.3395C54.0407 47.7051 54.5937 48.0261 55.3173 48.1967C55.5904 48.2614 55.8904 48.2959 56.2157 48.2959C56.9115 48.2959 57.4948 48.148 57.5603 48.132L58.5125 47.879L58.0914 46.9899C58.0603 46.9185 57.2653 45.1335 58.1209 42.5879C58.4889 41.4853 58.6772 40.5003 58.7688 39.7322C59.3688 40.0448 60.1723 40.3037 61.211 40.3062C63.57 40.3062 64.6104 38.5439 64.6566 38.4699L65.1214 37.6606L64.26 37.306C61.4488 36.1395 60.8269 33.004 60.7026 31.3089C60.9564 31.3576 61.2463 31.403 61.5741 31.4123L61.7194 31.4156Z" fill="#1A1919"/>
<path fill-rule="evenodd" clip-rule="evenodd" d="M58.2835 18.1084C58.8524 18.1084 59.5172 18.3025 60.145 18.9513C62.1157 20.9515 63.9478 21.0632 63.9478 21.0632C63.615 21.8011 62.6493 22.4474 61.6493 22.4474C61.4182 22.4474 61.1862 22.4129 60.9559 22.3331C59.6004 21.8751 59.1155 19.8421 56.7346 18.5765C56.7346 18.5765 57.3985 18.1084 58.2835 18.1084ZM56.3463 19.2992C57.4868 19.9068 58.1515 20.7203 58.7339 21.4422C59.3071 22.1473 59.8491 22.8247 60.6996 23.1071C61.0013 23.2104 61.3223 23.26 61.6493 23.26C62.9241 23.26 64.2058 22.4793 64.6923 21.3977L65.1815 20.3144L63.9982 20.2447C63.9427 20.243 62.4216 20.1035 60.729 18.374C60.0332 17.6655 59.1903 17.2924 58.2835 17.2924C57.175 17.2924 56.3531 17.8462 56.2623 17.9033L55.1757 18.6689L56.3463 19.2992Z" fill="#1A1919"/>
<path fill-rule="evenodd" clip-rule="evenodd" d="M56.8818 30.098V30.14C56.196 24.6026 52.1756 20.604 47.7004 18.1744C47.287 17.9517 46.9046 17.7634 46.534 17.5836C47.8954 17.7945 50.0897 17.8206 51.7831 16.3516C51.7831 16.3516 49.1921 18.2576 43.885 16.5264C45.3532 17.4794 48.208 18.8249 50.815 21.004C57.3297 26.728 52.6697 32.3124 52.6697 32.3124C55.0102 29.8685 55.1077 27.2515 54.4186 25.1136C55.6514 27.1658 56.4397 29.6559 56.317 32.7284C56.1372 37.1279 53.7185 40.9341 51.1746 43.9906C49.951 45.4747 49.6779 47.2984 49.6779 47.2984C49.6779 47.2984 50.172 45.689 51.5873 44.0335C54.3144 40.8399 56.6465 37.5246 56.9515 32.7452C57.2331 33.6134 58.3962 36.0236 60.2383 36.9312C60.2383 36.9312 57.9222 35.5362 56.8818 30.098Z" fill="#1A1919"/>
<path fill-rule="evenodd" clip-rule="evenodd" d="M21.4392 51.049C14.6496 51.049 14.8227 45.2259 14.8227 45.2259C14.8227 45.2259 14.3496 46.9504 12.457 47.4C12.231 47.4597 11.9889 47.4832 11.7519 47.4832C11.1426 47.4832 10.6157 47.3395 10.6157 47.3395C10.6157 47.3395 11.6032 45.2494 10.6191 42.3215C9.80562 39.8944 9.93672 38.0951 9.93672 38.0951C9.93672 38.0951 9.02482 39.4776 6.75492 39.491H6.73222C4.84472 39.491 4.02112 38.059 4.02112 38.059C8.54412 36.1799 8.10122 30.1164 8.10122 30.1164C8.10122 30.1164 7.51302 30.5542 6.36582 30.5954C6.32462 30.5979 6.28682 30.5979 6.24732 30.5979C3.75222 30.5979 2.90672 27.9263 2.90672 27.9263H2.95722C3.41772 27.9263 7.12222 27.8187 9.74172 24.4882C11.4679 22.2973 12.8831 20.3711 15.6724 19.6131L15.9522 19.5635L16.0119 19.2845C16.0892 18.8576 15.7976 18.4575 15.1345 18.0264C11.2813 15.5027 13.8983 12.284 13.8983 12.284C13.8983 12.284 14.9925 14.8581 17.4616 14.8581C17.5213 14.8581 17.5776 14.8556 17.6414 14.8556C17.9188 14.8396 18.1919 14.8295 18.4634 14.7724L18.9172 14.6841C18.9172 14.6841 18.2121 12.7731 19.9105 11.0208C21.1871 9.69721 22.7385 9.47198 23.6352 9.47198C24.0898 9.47198 24.3722 9.53081 24.3722 9.53081C23.5234 10.6427 22.9082 12.489 23.8898 13.6294C24.7394 14.6085 26.8119 14.6547 26.8119 16.1145C26.8119 16.733 26.2345 17.4541 25.1983 18.102C22.0787 20.066 18.9836 22.673 17.6961 26.1648C16.0892 30.5206 17.902 33.4124 20.4912 35.0705C20.4912 35.0705 19.6777 35.8176 18.5003 35.9126C18.26 35.9361 18.0289 35.9462 17.8062 35.9462C15.3253 35.9462 14.0412 34.7823 14.0412 34.7823C14.0412 34.7823 14.2546 36.3916 15.5388 37.8859C16.7389 39.265 18.302 40.0776 20.6904 40.1104C20.6904 40.1104 20.766 41.2189 19.7105 42.1778C19.0323 42.7837 17.47 42.9795 17.47 42.9795C17.47 42.9795 20.3971 43.5728 20.719 47.8933C20.8938 50.2347 21.4879 51.049 21.4879 51.049H21.4392ZM22.1611 50.5826C22.1594 50.575 21.6846 49.8355 21.5333 47.8353C21.356 45.4385 20.4492 44.0401 19.555 43.2367C19.813 43.1148 20.0525 42.9644 20.2542 42.7803C21.5686 41.5996 21.5132 40.2096 21.5039 40.0583L21.4535 39.3087L20.7005 39.2969C18.6961 39.265 17.2952 38.6649 16.159 37.348C15.8951 37.0396 15.6816 36.7311 15.5085 36.4294C16.1338 36.6211 16.8994 36.7631 17.8062 36.7631C18.049 36.7631 18.302 36.748 18.5684 36.7312C19.9803 36.6101 20.9358 35.7689 21.0417 35.6764L21.8233 34.9587L20.9316 34.3856C18.9365 33.1099 16.896 30.6904 18.4634 26.4489C19.4786 23.6907 21.8233 21.193 25.6362 18.7987C26.922 17.9852 27.6271 17.0288 27.6271 16.1145C27.6271 14.7009 26.4463 14.1446 25.5807 13.7462C25.1596 13.5446 24.7201 13.3454 24.5067 13.0975C23.836 12.3209 24.4008 10.8334 25.0227 10.0275L25.821 8.98203L24.5293 8.72739C24.4915 8.72319 24.1529 8.66016 23.6352 8.66016C22.6695 8.66016 20.8282 8.89379 19.3248 10.451C18.0709 11.7478 17.9062 13.1269 17.97 14.0185C17.8499 14.0278 17.7272 14.0328 17.5986 14.0404H17.4616C15.5741 14.0404 14.6832 12.0411 14.6479 11.9629L14.1176 10.7141L13.2588 11.7671C13.21 11.831 11.9553 13.395 12.2604 15.3573C12.4629 16.6608 13.2823 17.7852 14.6891 18.7096C14.8421 18.8071 14.948 18.8912 15.0244 18.9609C12.3713 19.8232 10.8905 21.7141 9.32822 23.6999L9.10302 23.9823C6.71462 27.022 3.33372 27.1119 2.92942 27.1119L1.77722 27.0767L2.12772 28.1725C2.16892 28.3062 3.18742 31.4156 6.24732 31.4156L6.39522 31.4123C6.71882 31.403 7.00872 31.3576 7.26762 31.3081C7.14072 33.004 6.51622 36.1387 3.70432 37.306L2.84622 37.6606L3.31102 38.4699C3.35552 38.5439 4.39842 40.3062 6.76162 40.3062C7.79452 40.3028 8.59792 40.0448 9.19882 39.7331C9.28962 40.5003 9.47782 41.4853 9.84672 42.5879C10.7023 45.1335 9.90642 46.9185 9.87622 46.9899L9.45342 47.879L10.4081 48.132C10.4712 48.148 11.0578 48.2959 11.7519 48.2959C12.0763 48.2959 12.3772 48.2606 12.6478 48.1959C13.3722 48.0261 13.9311 47.7051 14.3563 47.3395C14.6152 48.1362 15.0597 49.0371 15.8312 49.8355C17.1431 51.1835 19.0289 51.8642 21.4938 51.8642L22.9872 51.8432L22.1611 50.5826Z" fill="#1A1919"/>
<path fill-rule="evenodd" clip-rule="evenodd" d="M7.821 18.9513C8.4513 18.3025 9.1144 18.1084 9.6867 18.1084C10.5666 18.1084 11.2331 18.5757 11.2331 18.5757C8.8547 19.8438 8.36481 21.8759 7.00591 22.3331C6.78151 22.4129 6.5487 22.4474 6.3167 22.4474C5.3183 22.4474 4.351 21.802 4.0216 21.0632C4.0216 21.0632 5.852 20.9515 7.821 18.9513ZM6.3167 23.26C6.6445 23.26 6.9647 23.2105 7.2681 23.1071C8.1202 22.8247 8.6623 22.1482 9.2346 21.4423C9.8204 20.7204 10.4784 19.906 11.6188 19.2984L12.7928 18.6698L11.7028 17.9033C11.6121 17.8462 10.7944 17.2932 9.6867 17.2932C8.7774 17.2932 7.9345 17.6655 7.2378 18.3748C5.5444 20.1043 4.0266 20.243 3.972 20.2447L2.79041 20.3144L3.2753 21.3986C3.7636 22.4785 5.0435 23.26 6.3167 23.26Z" fill="#1A1919"/>
<path fill-rule="evenodd" clip-rule="evenodd" d="M11.6529 32.7276C11.526 29.6568 12.3143 27.1667 13.5488 25.1136C12.8605 27.2507 12.9538 29.8685 15.2985 32.3133C15.2985 32.3133 10.6368 26.728 17.155 21.004C19.7602 18.8249 22.6125 17.4794 24.0807 16.5264C18.7752 18.2576 16.1843 16.3524 16.1843 16.3524C17.8777 17.8206 20.072 17.7954 21.4326 17.5828C21.0645 17.7634 20.6779 17.9509 20.267 18.1736C15.791 20.6032 11.7722 24.6026 11.0831 30.1408V30.098C10.0443 35.5362 7.73071 36.9313 7.73071 36.9313C9.57121 36.0236 10.7301 33.6134 11.0125 32.7452C11.3209 37.5246 13.6522 40.84 16.3793 44.0335C17.7937 45.6891 18.2929 47.2976 18.2929 47.2976C18.2929 47.2976 18.0164 45.4747 16.7877 43.9906C14.2472 40.9349 11.8302 37.1279 11.6529 32.7276Z" fill="#1A1919"/>
<path fill-rule="evenodd" clip-rule="evenodd" d="M32.4503 21.5242V22.6234C32.8294 22.162 33.5605 22.2553 33.5605 22.2553V23.8386C33.5605 23.8386 33.5353 24.6177 33.258 24.9547H34.0521H34.8421C34.569 24.6177 34.5412 23.8386 34.5412 23.8386V22.2553C34.5412 22.2553 35.2741 22.162 35.6506 22.6234V21.5242H34.0521H32.4503Z" fill="#1A1919"/>
<path fill-rule="evenodd" clip-rule="evenodd" d="M31.7698 15.0126C32.2774 15.4143 32.569 15.4816 32.5782 15.4866L32.7766 15.579V14.5445L30.9159 13.7629C30.9159 13.7629 30.9319 14.3621 31.7698 15.0126Z" fill="#1A1919"/>
<path fill-rule="evenodd" clip-rule="evenodd" d="M36.1955 15.0126C37.0359 14.3621 37.0519 13.7629 37.0519 13.7629L35.1912 14.5445V15.579L35.3879 15.4866C35.398 15.4816 35.6896 15.4143 36.1955 15.0126Z" fill="#1A1919"/>
<path fill-rule="evenodd" clip-rule="evenodd" d="M33.9817 12.2583L29.499 10.4876C29.8805 9.58421 31.6387 8.81692 33.9817 8.8144C36.3289 8.81692 38.087 9.58421 38.4661 10.4876L33.9817 12.2583ZM37.3248 17.8075L34.3111 19.395V12.9651L38.4005 11.5768L37.3248 17.8075ZM39.1913 19.5144L40.5687 20.3144H40.5881L40.9343 20.5153C40.1561 20.7312 39.5628 21.1204 39.0627 21.6305C39.0442 21.6473 39.0283 21.6649 39.0081 21.6851C38.8938 21.807 38.7812 21.9389 38.6719 22.0742C38.6518 22.0994 38.6299 22.1263 38.6072 22.1557C38.5013 22.2927 38.4005 22.4339 38.3039 22.5801C38.2879 22.6053 38.2702 22.6306 38.2534 22.6549C38.1391 22.8247 38.0299 23.007 37.9206 23.1953C36.9399 24.8853 35.3734 25.8963 33.9817 25.898C32.5908 25.8963 31.0243 24.8853 30.0453 23.1953C29.9385 23.0121 29.8301 22.8339 29.7175 22.6625C29.6948 22.6305 29.6738 22.5969 29.6536 22.57C29.5578 22.4289 29.4603 22.291 29.3629 22.1616C29.3376 22.1263 29.3141 22.0994 29.2889 22.0683C29.183 21.9389 29.0738 21.8078 28.9628 21.6893C28.9393 21.67 28.9233 21.6473 28.9032 21.6271C28.4006 21.1162 27.809 20.7312 27.0299 20.5153L27.3795 20.3144H27.3946L28.7754 19.5144L30.1915 18.7025L33.975 20.7615L33.9817 20.7531L33.9926 20.7615L37.7752 18.7025L39.1913 19.5144ZM44.6262 25.2333C44.3177 26.0476 44.0631 26.9292 44.0631 27.8057L44.0656 33.4641C42.8823 33.2658 42.7437 31.9926 42.7386 31.938L42.7168 31.6783L42.4621 31.6564C41.9478 31.606 41.6075 31.39 41.32 31.111C40.7402 30.5303 40.7393 29.5907 40.7402 29.5823C40.7318 29.6311 40.1023 30.5135 40.8335 31.4774C41.141 31.8833 41.5873 32.1329 42.1638 32.2313C42.2991 32.9372 42.8252 33.9356 44.0656 34.0869V36.8568H40.5763C38.9678 35.961 39.6502 34.3852 39.6804 34.318L39.8166 34.0196L39.509 33.9028C37.7668 33.2565 38.2467 31.5194 38.2702 31.4438L38.34 31.1908L38.103 31.0782C36.6651 30.4118 36.8592 28.6159 36.8785 28.5402C36.4356 28.8999 36.276 29.6311 36.581 30.3479C36.4163 30.537 36.1953 30.7648 35.9524 31.0152C34.4624 30.6353 34.4162 29.2672 34.4162 29.2041L34.4128 28.9932L34.217 28.9176C33.6354 28.7016 33.2362 28.3789 33.0388 27.9452C32.8186 27.4654 32.8959 26.9611 32.9564 26.7182C33.1278 26.7577 33.2976 26.7838 33.459 26.7981C33.627 26.8149 33.7985 26.8258 33.9716 26.8258H33.9817H33.9951C34.1674 26.8258 34.338 26.8149 34.5061 26.7981C35.4347 26.7056 36.4735 26.3073 37.5567 25.2333H44.6262ZM40.2679 49.8922L40.657 47.8627C40.678 47.7433 40.7024 47.6038 40.7192 47.487C40.8301 47.5332 40.9452 47.5711 41.0713 47.5946C41.2175 47.6215 41.3511 47.6366 41.473 47.6366C42.068 47.6366 42.4151 47.3231 42.6445 47.0559L42.9437 46.708L42.7 46.3264C42.6781 46.2878 42.1361 45.4339 41.7218 44.8482C41.6394 44.7339 41.5621 44.6196 41.4831 44.4952C41.0099 43.7884 40.4183 42.9018 39.2317 42.9018L39.1249 42.9043C38.93 42.9161 38.7619 42.9547 38.6257 43.0069C38.2534 42.8321 37.8685 42.7413 37.4685 42.7413C36.9769 42.7413 36.5651 42.8774 36.2894 42.9707C36.2096 42.9934 36.1398 43.0195 36.0844 43.0287L33.8657 42.811C33.838 42.806 33.7481 42.7522 33.6371 42.622V42.6102L34.117 42.4186C33.9817 40.8193 32.4471 39.8352 31.5916 39.5032C31.5538 39.3436 31.4773 39.1839 31.3428 39.0536L30.8655 38.6006L30.447 39.1032L30.2402 39.3587L27.1341 38.083L29.1544 40.6201L28.3577 41.8286C28.0661 42.1387 28.388 42.4497 28.388 42.4497L29.2124 43.0169L30.0654 42.6984C30.0948 42.6984 30.1217 42.7052 30.1503 42.7077C30.1083 42.8388 30.0553 43.3472 30.02 43.4892L28.5376 43.1976L26.9795 44.0767C26.1794 44.6658 26.0702 45.6381 26.3677 46.3037L26.54 46.6819L26.7853 47.2156L27.3308 46.9895C27.3383 46.987 27.3459 46.9845 27.3509 46.9803C27.1543 47.6072 27.235 48.2022 27.5837 48.5905L27.9148 49.0073L28.3544 49.5636L28.8384 49.0434C28.9796 48.9031 29.4419 48.3862 29.583 47.9442L29.6881 47.6072L29.4528 47.3467L29.4133 47.2996L29.6788 46.8626L31.6134 47.3181L32.0488 47.4181L32.2807 47.0357L32.4059 46.8281C32.4303 46.7836 32.4362 46.7769 32.5253 46.7769C32.5942 46.7769 32.6623 46.7836 32.7362 46.8013C33.4665 46.9382 34.1397 47.0071 34.7372 47.0071C35.3171 47.0071 35.6633 46.9845 36.076 46.8475C36.076 46.8475 37.1147 48.0282 37.1508 48.0719L36.5146 50.0359L36.4861 50.1544C35.2809 50.2519 34.6952 50.5158 33.9859 51.2243C32.9564 50.2023 32.2269 50.0948 29.4603 50.0948C26.1475 50.0948 23.9028 48.1535 23.9028 45.0515V37.4678H44.0656L44.069 45.0515C44.069 47.5652 42.5932 49.3208 40.2679 49.8922ZM27.8485 45.6054L27.9527 45.8667C27.8837 46.097 27.0971 46.4206 27.0971 46.4206L26.9274 46.0483C26.7467 45.6516 26.7853 44.9826 27.3333 44.5742L28.6082 43.7968L29.9612 44.0842C29.9368 44.5128 30.1932 44.8347 30.1932 44.8347L28.7754 44.5616L27.9283 45.1482C27.7837 45.2482 27.7737 45.4339 27.8485 45.6054ZM40.0544 47.7484L39.6191 50.0166C39.3409 50.0561 39.0484 50.0754 38.7459 50.0881L39.2039 47.9081C39.3409 47.2601 37.6013 47.0584 36.7416 45.7844C36.3222 46.2558 35.5322 46.3979 34.7372 46.3979C34.0128 46.3979 33.2892 46.2819 32.8488 46.1953C32.7371 46.1768 32.6303 46.1651 32.5253 46.1651C32.2715 46.1651 32.0404 46.2432 31.879 46.5122L31.7538 46.7256L29.3822 46.1668L28.7931 47.1441C28.7099 47.3021 28.704 47.4341 28.8384 47.5828L28.9981 47.7576C28.8872 48.103 28.3947 48.6258 28.3947 48.6258L28.0426 48.1854C27.7636 47.8736 27.809 47.3021 28.0997 46.7735L29.0401 45.1868L31.0487 45.4759L30.7369 44.7658C30.3167 43.8254 30.9562 42.6287 31.0243 41.9395C31.0016 42.1471 30.81 42.195 30.5873 42.195C30.3848 42.195 30.1587 42.1564 30.0083 42.1564C29.9495 42.1564 29.8982 42.1623 29.8713 42.1824L29.3267 42.5119L28.8981 42.1328C28.846 42.0606 28.83 41.89 28.9561 41.7614L29.9494 40.647L28.7754 39.2755L30.4192 40.1016L30.921 39.4931C31.0596 39.6285 30.9991 39.9814 30.9991 39.9814C31.5109 39.994 32.9505 40.789 33.027 42.6463C33.0304 42.7035 33.0304 42.7673 33.0304 42.8278C33.0304 42.8278 33.0438 42.8505 33.069 42.8884C33.1699 43.0287 33.4514 43.3867 33.8069 43.4203L36.0785 43.6456H36.0869C36.3356 43.6456 36.8323 43.3531 37.4685 43.3531C37.8147 43.3531 38.1996 43.4405 38.6114 43.7002C38.6114 43.7002 38.8182 43.5363 39.1527 43.5195C39.1779 43.5161 39.2073 43.5161 39.2317 43.5161C40.2494 43.5161 40.6729 44.4372 41.22 45.2011C41.631 45.7844 42.1806 46.6491 42.1806 46.6491C41.9781 46.8895 41.7898 47.0231 41.473 47.0231C41.3864 47.0231 41.2881 47.0164 41.1805 46.9945C40.0872 46.7937 39.93 44.5473 39.3064 44.37C39.2728 44.3607 39.2392 44.3565 39.2073 44.3565C39.0064 44.3565 38.919 44.5355 38.919 44.5355C39.2039 45.3011 39.0375 45.6112 39.3443 46.2012C39.5737 46.6382 39.9804 46.9987 40.1477 47.1685C40.1477 47.1685 40.1023 47.5005 40.0544 47.7484ZM37.9635 50.1023C37.6576 50.1023 37.3752 50.1074 37.1223 50.1175L37.7878 48.045C37.8921 47.7576 37.366 47.3895 37.1491 47.0651C37.4769 47.2719 38.3257 47.7223 38.735 47.9022C38.6938 47.9694 37.9635 50.1023 37.9635 50.1023ZM28.0703 31.4295L28.1653 27.8267L28.9737 26.972L29.4813 28.0343L28.4796 31.4934L28.0703 31.4295ZM28.6519 32.5456C28.7838 32.8237 29.0216 33.007 29.1889 33.1128C29.183 33.3734 29.1586 33.7759 29.0897 34.1322C29.0738 34.2121 29.0536 34.2852 29.0317 34.3583C29.02 34.4045 29.0065 34.4415 28.9964 34.4726C28.7494 34.4726 28.2653 34.4415 27.8678 34.2978C27.4283 34.1356 26.7727 33.3297 26.924 32.4414C27.1139 32.3245 27.5543 32.0766 27.967 32.0766C28.2829 32.0766 28.5006 32.2262 28.6519 32.5456ZM38.0148 33.5137C37.3929 33.9717 35.7919 35.1416 35.2103 35.5475L29.6183 34.5432C29.6309 34.4919 29.6444 34.4415 29.657 34.3936C29.7301 34.1028 29.8057 33.707 29.8091 33.2414L34.5095 33.3162L34.5994 33.2246C34.6708 33.1532 36.16 31.7144 36.9189 30.8875C37.0996 31.1144 37.3248 31.3295 37.6214 31.5194C37.5198 32.0699 37.5626 32.854 38.0148 33.5137ZM30.41 25.2333C31.0823 25.9005 31.7403 26.3174 32.3656 26.5451C32.2849 26.8678 32.1782 27.5334 32.4791 28.1965C32.7261 28.731 33.1715 29.1428 33.817 29.4176C33.8876 30.079 34.3061 31.0724 35.4616 31.511C34.9549 32.0212 34.4624 32.5036 34.2632 32.6968L29.573 32.622C29.4662 32.5699 29.2847 32.4498 29.204 32.2808C29.1948 32.2573 29.1796 32.2439 29.1696 32.2212L29.9343 32.3439C29.9511 32.3464 29.9671 32.3464 29.9831 32.3464C30.1318 32.3464 30.2604 32.2439 30.2848 32.0926C30.31 31.9228 30.1965 31.7674 30.0318 31.7413L29.0897 31.5926L30.1343 27.9839L29.1443 25.9005L27.5594 27.578L27.4619 31.3295L26.3962 31.1606C26.2315 31.1287 26.0744 31.2488 26.0458 31.4161C26.0197 31.58 26.1324 31.7371 26.2996 31.7665L26.7467 31.8346C26.587 31.9254 26.4811 31.9976 26.4685 32.0077L26.3786 32.0707L26.3534 32.1825C26.0945 33.2355 26.6803 34.2339 27.314 34.6827L27.2913 34.8155C27.2652 34.9768 27.3022 35.1348 27.3997 35.2668C27.4921 35.4021 27.6325 35.4828 27.7921 35.5113C27.8241 35.5172 27.8594 35.5197 27.8905 35.5197C28.1653 35.5197 28.4048 35.3298 28.4712 35.0525C28.7073 35.0802 28.9233 35.0861 29.0712 35.0861H29.1965L35.3507 36.1979L35.4557 36.1282C35.9449 35.7861 37.8147 34.4239 38.4282 33.9726C38.5963 34.118 38.7846 34.2491 39.0123 34.3583C38.814 35.0231 38.8014 36.0484 39.5855 36.8568H23.9028V27.8057C23.9028 26.9292 23.6465 26.0476 23.3431 25.2333H30.41ZM29.562 11.5768L33.6548 12.9651V19.395L30.6411 17.8075L29.562 11.5768ZM39.5468 10.8011C39.5468 9.23207 36.9063 7.82104 33.9909 7.82104H33.9884H33.9817H33.975C31.0596 7.82104 28.4191 9.23207 28.4191 10.8011L28.4771 11.1868L29.641 17.8689L28.4712 18.5471L25.4466 20.3144H25.4584C25.4584 20.3144 24.7776 20.6632 24.4616 20.8783C23.3103 21.6775 23.0649 22.8457 23.7339 23.3281C23.8986 22.3759 24.6516 21.3809 26.0601 21.3809C27.0744 21.3809 27.8485 21.9053 28.4712 22.6902C28.6325 22.8877 28.7855 23.0995 28.9275 23.3281C29.1023 23.6155 29.278 23.8668 29.4528 24.1105H21.6606C22.2337 25.261 22.7775 26.4804 22.7775 27.8057V45.0515C22.7775 49.2258 25.9878 51.2175 29.4603 51.2175C32.1437 51.2175 32.5051 51.0949 33.9859 52.5714C35.4599 51.0949 35.8222 51.2175 38.5081 51.2175C41.9823 51.2175 45.1884 49.2258 45.1884 45.0515V27.8057C45.1884 26.4804 45.7321 25.261 46.307 24.1105H38.5131C38.6862 23.8668 38.8619 23.6155 39.0375 23.3281C39.1812 23.0995 39.3333 22.8877 39.4905 22.6902C40.12 21.9028 40.8914 21.3809 41.9066 21.3809C43.3143 21.3809 44.0656 22.3759 44.2329 23.3281C44.9018 22.8457 44.6589 21.6775 43.5009 20.8783C43.1908 20.6632 42.5092 20.3144 42.5092 20.3144H42.5193L39.4905 18.5471L38.3257 17.8689L39.4905 11.1868L39.5468 10.8011Z" fill="#1A1919"/>
</svg>
