<svg width="57" height="38" viewBox="0 0 57 38" fill="none" xmlns="http://www.w3.org/2000/svg">
<path d="M38.5002 12.6667C38.5192 13.0372 38.5715 13.4061 38.657 13.7671C38.676 13.8462 38.6934 13.9254 38.7172 14.003L38.7425 14.098C39.1444 15.364 39.9386 16.4694 41.0103 17.2541C42.0819 18.0389 43.3755 18.4623 44.7037 18.4632H52.9656C53.0915 17.7545 53.0608 17.0268 52.8756 16.3312C52.6904 15.6356 52.3551 14.989 51.8934 14.4368C51.4317 13.8845 50.8547 13.44 50.2029 13.1345C49.5512 12.829 48.8404 12.6699 48.1206 12.6682H38.5002V12.6667Z" fill="url(#paint0_linear)"/>
<path fill-rule="evenodd" clip-rule="evenodd" d="M30.7768 14.1455L27.6434 20.9301H27.3251V12.6667H22.876V26.6538H26.6522C27.1379 26.654 27.6135 26.5149 28.0227 26.2531C28.4318 25.9913 28.7573 25.6177 28.9607 25.1766L32.0941 18.3888H32.4108V26.6538H36.86V12.6667H33.0853C32.5995 12.6663 32.1238 12.8053 31.7147 13.0672C31.3055 13.329 30.98 13.7027 30.7768 14.1439V14.1455ZM38.7077 19.3103V26.6507H43.1822V22.5182H47.6836C50.0365 22.5182 52.0425 21.1834 52.8184 19.3103H38.7093H38.7077ZM11.9098 20.9317L10.0557 14.5033C9.90261 13.9737 9.58156 13.5082 9.14091 13.177C8.70027 12.8457 8.1639 12.6666 7.61263 12.6667H3.16663V26.6538H7.61896V18.3888H7.93563L10.4832 26.6538H13.6578L16.2006 18.3888H16.5189V26.6538H20.968V12.6667H16.5315C15.9792 12.6652 15.4414 12.8437 14.9995 13.1751C14.5575 13.5064 14.2355 13.9727 14.0821 14.5033L12.2296 20.9317H11.9114H11.9098Z" fill="#006848"/>
<defs>
<linearGradient id="paint0_linear" x1="38.5002" y1="15.5657" x2="53.0527" y2="15.5657" gradientUnits="userSpaceOnUse">
<stop stop-color="#00AFFF"/>
<stop offset="0.01" stop-color="#00AFFF"/>
<stop offset="1" stop-color="#1F5BD7"/>
</linearGradient>
</defs>
</svg>
