<svg width="93" height="60" viewBox="0 0 93 60" fill="none" xmlns="http://www.w3.org/2000/svg">
<g clip-path="url(#clip0)">
<mask id="mask0" mask-type="alpha" maskUnits="userSpaceOnUse" x="66" y="0" width="27" height="36">
<path d="M70.089 5.47428C73.2916 4.57272 76.4967 3.6702 79.7004 2.76972C82.9041 1.86996 86.1074 0.967318 89.314 0.0653979C91.2351 -0.475442 92.8122 2.40456 92.8122 6.4638C92.8122 10.1498 92.8122 13.8433 92.8122 17.5298C92.8122 21.2159 92.8122 24.9098 92.8122 28.5996C92.8122 32.6584 91.2369 35.5351 89.314 34.9943C86.1085 34.0922 82.904 33.188 79.7004 32.286C76.4971 31.384 73.2934 30.4794 70.089 29.5774C68.1676 29.0364 66.5934 26.5997 66.5934 24.1642C66.5934 21.9503 66.5934 19.7363 66.5934 17.5225C66.5934 15.3121 66.5934 13.0984 66.5934 10.8838C66.5934 8.4486 68.1668 6.01512 70.089 5.47428Z" fill="white"/>
</mask>
<g mask="url(#mask0)">
<path d="M92.8123 -0.475563H66.5934V35.535H92.8123V-0.475563Z" fill="url(#paint0_linear)"/>
</g>
<mask id="mask1" mask-type="alpha" maskUnits="userSpaceOnUse" x="0" y="0" width="27" height="36">
<path d="M22.7238 5.47427C19.5199 4.57271 16.3161 3.67019 13.1123 2.76971C9.90798 1.86995 6.70465 0.967307 3.49758 0.0653867C1.57628 -0.475573 0 2.40443 0 6.46367C0 10.1497 0 13.8432 0 17.5297C0 21.2157 0 24.9097 0 28.5995C0 32.6582 1.57532 35.535 3.49746 34.9941C6.70332 34.0921 9.90725 33.1879 13.1122 32.2859C16.315 31.3838 19.5188 30.4793 22.7237 29.5772C24.6443 29.0363 26.218 26.5995 26.218 24.164C26.218 21.9501 26.218 19.7361 26.218 17.5224C26.218 15.312 26.218 13.0982 26.218 10.8836C26.218 8.44859 24.6454 6.01511 22.7238 5.47427Z" fill="white"/>
</mask>
<g mask="url(#mask1)">
<path d="M26.2182 -0.475559H0V35.535H26.2182V-0.475559Z" fill="url(#paint1_linear)"/>
</g>
<mask id="mask2" mask-type="alpha" maskUnits="userSpaceOnUse" x="51" y="0" width="14" height="36">
<path d="M53.1855 5.47428C54.7876 4.57272 56.3892 3.6702 57.9917 2.76972C59.5933 1.86996 61.195 0.967318 62.7985 0.0653979C63.7588 -0.475442 64.5476 2.40456 64.5476 6.4638C64.5476 10.1498 64.5476 13.8433 64.5476 17.5298C64.5476 21.2159 64.5476 24.9098 64.5476 28.5996C64.5476 32.6584 63.76 35.5351 62.7985 34.9943C61.1957 34.0922 59.5937 33.188 57.9917 32.286C56.3901 31.384 54.788 30.4794 53.1855 29.5774C52.2252 29.0364 51.4386 26.5997 51.4386 24.1642C51.4386 21.9503 51.4386 19.7363 51.4386 17.5225C51.4386 15.3121 51.4386 13.0984 51.4386 10.8838C51.4386 8.4486 52.2249 6.01512 53.1855 5.47428Z" fill="white"/>
</mask>
<g mask="url(#mask2)">
<path d="M64.5476 -0.475563H51.4387V35.535H64.5476V-0.475563Z" fill="url(#paint2_linear)"/>
</g>
<mask id="mask3" mask-type="alpha" maskUnits="userSpaceOnUse" x="28" y="0" width="14" height="36">
<path d="M39.6261 5.47428C38.0248 4.57272 36.4223 3.6702 34.8204 2.76972C33.2184 1.86996 31.617 0.967318 30.0135 0.0653979C29.0527 -0.475442 28.2645 2.40456 28.2645 6.4638C28.2645 10.1498 28.2645 13.8433 28.2645 17.5298C28.2645 21.2159 28.2645 24.9098 28.2645 28.5996C28.2645 32.6584 29.0521 35.5351 30.0135 34.9943C31.6164 34.0922 33.2184 33.188 34.8204 32.286C36.4223 31.384 38.0243 30.4794 39.6261 29.5774C40.5869 29.0364 41.3735 26.5997 41.3735 24.1642C41.3735 21.9503 41.3735 19.7363 41.3735 17.5225C41.3735 15.3121 41.3735 13.0984 41.3735 10.8838C41.3735 8.4486 40.5874 6.01512 39.6261 5.47428Z" fill="white"/>
</mask>
<g mask="url(#mask3)">
<path d="M41.3735 -0.475563H28.2645V35.535H41.3735V-0.475563Z" fill="url(#paint3_linear)"/>
</g>
<mask id="mask4" mask-type="alpha" maskUnits="userSpaceOnUse" x="47" y="0" width="3" height="36">
<path d="M47.6906 5.47428C47.9304 4.57272 48.1704 3.6702 48.41 2.76972C48.6505 1.86996 48.89 0.967318 49.13 0.0653979C49.2739 -0.475442 49.3922 2.40456 49.3922 6.4638C49.3922 10.1498 49.3922 13.8433 49.3922 17.5298C49.3922 21.2159 49.3922 24.9098 49.3922 28.5996C49.3922 32.6584 49.2739 35.5351 49.13 34.9943C48.8901 34.0922 48.6505 33.188 48.41 32.286C48.1703 31.384 47.9304 30.4794 47.6906 29.5774C47.5468 29.0364 47.429 26.5997 47.429 24.1642C47.429 21.9503 47.429 19.7363 47.429 17.5225C47.429 15.3121 47.429 13.0984 47.429 10.8838C47.429 8.4486 47.547 6.01512 47.6906 5.47428Z" fill="white"/>
</mask>
<g mask="url(#mask4)">
<path d="M49.3922 -0.475563H47.429V35.535H49.3922V-0.475563Z" fill="url(#paint4_linear)"/>
</g>
<mask id="mask5" mask-type="alpha" maskUnits="userSpaceOnUse" x="43" y="0" width="3" height="36">
<path d="M45.1214 5.47428C44.8816 4.57272 44.6412 3.6702 44.4015 2.76972C44.1618 1.86996 43.9219 0.967318 43.6816 0.0653979C43.5377 -0.475442 43.42 2.40456 43.42 6.4638C43.42 10.1498 43.42 13.8433 43.42 17.5298C43.42 21.2159 43.42 24.9098 43.42 28.5996C43.42 32.6584 43.5377 35.5351 43.6816 34.9943C43.9219 34.0922 44.1618 33.188 44.4015 32.286C44.6414 31.384 44.8811 30.4794 45.1214 29.5774C45.2653 29.0364 45.3832 26.5997 45.3832 24.1642C45.3832 21.9503 45.3832 19.7363 45.3832 17.5225C45.3832 15.3121 45.3832 13.0984 45.3832 10.8838C45.3831 8.4486 45.2653 6.01512 45.1214 5.47428Z" fill="white"/>
</mask>
<g mask="url(#mask5)">
<path d="M45.3832 -0.475563H43.4199V35.535H45.3832V-0.475563Z" fill="url(#paint5_linear)"/>
</g>
<path d="M81.1946 48.3492C81.006 48.318 80.7851 48.2936 80.5366 48.2729C80.2915 48.2554 80.0185 48.2448 79.7244 48.2448C78.8068 48.2479 77.9526 48.3284 77.1687 48.4782C76.384 48.6313 75.6945 48.8233 75.1028 49.0598V59.762H77.9601V50.7742C78.1417 50.701 78.3592 50.6454 78.611 50.6034C78.8628 50.5651 79.122 50.5441 79.3883 50.5441C79.6226 50.5441 79.8469 50.5578 80.0675 50.589C80.2877 50.6173 80.4875 50.6591 80.6698 50.7112L81.1946 48.3492Z" fill="#4D4D4D"/>
<path d="M73.6595 51.269C73.4452 50.6417 73.1341 50.105 72.7173 49.6522C72.3044 49.203 71.7931 48.8539 71.1903 48.6144C70.585 48.37 69.8918 48.2479 69.1078 48.2448C68.282 48.2479 67.5429 48.3911 66.8953 48.677C66.2477 48.9623 65.6977 49.3664 65.246 49.8893C64.7944 50.4115 64.4481 51.0283 64.2136 51.7458C63.9752 52.4602 63.8597 53.2513 63.8561 54.1183C63.8561 54.9895 63.979 55.7838 64.2238 56.5051C64.4688 57.2225 64.829 57.8424 65.3125 58.3654C65.7927 58.8914 66.3872 59.2955 67.0976 59.5812C67.8125 59.8633 68.6351 60.0097 69.5697 60.0131C70.1197 60.0131 70.6556 59.9785 71.1732 59.9084C71.6913 59.839 72.1711 59.7451 72.6123 59.6232C73.0497 59.5013 73.4315 59.3581 73.7501 59.1979L72.9309 57.0661C72.6612 57.2051 72.3571 57.3307 72.0099 57.4352C71.6668 57.5435 71.3065 57.6266 70.9244 57.6862C70.543 57.745 70.1613 57.7766 69.7799 57.7766C69.2236 57.7766 68.7264 57.6862 68.2889 57.5052C67.8474 57.3238 67.4867 57.0487 67.203 56.6826C66.923 56.3167 66.7373 55.8602 66.6501 55.3098L73.939 54.327C73.9599 54.16 73.9814 53.5226 73.9814 53.3657C73.9815 52.5962 73.8727 51.8958 73.6595 51.269ZM66.4609 53.5121C66.4788 52.8083 66.5975 52.2198 66.8181 51.7457C67.0387 51.269 67.3399 50.9131 67.7212 50.673C68.103 50.4328 68.5442 50.314 69.0451 50.314C69.4896 50.314 69.8709 50.4084 70.1933 50.5998C70.5189 50.7881 70.7674 51.0737 70.9423 51.4499C71.1175 51.8293 71.2086 52.2998 71.2086 52.8646L66.4609 53.5121Z" fill="#4D4D4D"/>
<path d="M62.6923 43.3535H59.8354V59.7621H62.6923V43.3535Z" fill="#4D4D4D"/>
<path d="M58.0623 43.3535H55.2057V59.7621H58.0623V43.3535Z" fill="#4D4D4D"/>
<path d="M53.7195 51.269C53.5063 50.6417 53.1948 50.105 52.7778 49.6522C52.3648 49.203 51.8538 48.8539 51.2516 48.6144C50.6458 48.37 49.9529 48.2479 49.1684 48.2448C48.3424 48.2479 47.6034 48.3911 46.9558 48.677C46.3077 48.9623 45.7585 49.3664 45.307 49.8893C44.8552 50.4115 44.5088 51.0283 44.2738 51.7458C44.0361 52.4602 43.9204 53.2513 43.9172 54.1183C43.9172 54.9895 44.0397 55.7838 44.2843 56.5051C44.5296 57.2225 44.8902 57.8424 45.373 58.3654C45.8532 58.8914 46.4481 59.2955 47.1589 59.5812C47.873 59.8633 48.6957 60.0097 49.6305 60.0131C50.1803 60.0131 50.716 59.9785 51.2341 59.9084C51.7522 59.839 52.2315 59.7451 52.673 59.6232C53.1104 59.5013 53.4918 59.3581 53.8104 59.1979L52.9916 57.0661C52.722 57.2051 52.4175 57.3307 52.0706 57.4352C51.7276 57.5435 51.3672 57.6266 50.9855 57.6862C50.6042 57.745 50.2219 57.7766 49.8409 57.7766C49.2841 57.7766 48.7868 57.6862 48.3494 57.5052C47.9074 57.3238 47.5472 57.0487 47.2639 56.6826C46.9835 56.3167 46.7979 55.8602 46.7105 55.3098L53.9999 54.327C54.0206 54.16 54.0419 53.5226 54.0419 53.3657C54.0419 52.5962 53.9338 51.8958 53.7195 51.269ZM46.5215 53.5121C46.539 52.8083 46.6584 52.2198 46.8785 51.7457C47.0998 51.269 47.4002 50.9131 47.7817 50.673C48.1633 50.4328 48.6053 50.314 49.1055 50.314C49.55 50.314 49.9315 50.4084 50.2541 50.5998C50.5791 50.7881 50.8279 51.0737 51.0031 51.4499C51.1781 51.8293 51.2691 52.2998 51.2691 52.8646L46.5215 53.5121Z" fill="#4D4D4D"/>
<path d="M43.5308 59.6158V57.2537C43.4323 57.2957 43.3096 57.3338 43.1594 57.3688C43.0124 57.4 42.8615 57.4175 42.7113 57.4214C42.463 57.4214 42.2423 57.3827 42.0456 57.3061C41.8501 57.2261 41.6955 57.0968 41.5835 56.9159C41.4684 56.7347 41.4125 56.4906 41.4087 56.188V50.6273H43.5307V48.4956H41.4087V45.1724L38.5938 45.9875V48.4956H37.1443V50.6274H38.5938V56.3761C38.5901 57.5572 38.8529 58.4455 39.3814 59.0376C39.9101 59.6332 40.719 59.9297 41.8078 59.9297C42.0423 59.9297 42.266 59.9122 42.4867 59.8841C42.7073 59.8566 42.9072 59.8183 43.0894 59.7727C43.2674 59.7239 43.4146 59.6714 43.5308 59.6158Z" fill="#4D4D4D"/>
<path d="M36.2747 48.4956H33.4177V59.7622H36.2747V48.4956Z" fill="#4D4D4D"/>
<path d="M36.4847 45.1512C36.4814 44.862 36.4074 44.6045 36.2602 44.3743C36.1136 44.1442 35.9175 43.9634 35.6725 43.8307C35.4273 43.6951 35.1506 43.6288 34.8459 43.6256C34.5415 43.6288 34.265 43.6951 34.02 43.8307C33.7748 43.9634 33.5787 44.144 33.4316 44.3743C33.2846 44.6045 33.2115 44.8621 33.2079 45.1512C33.2116 45.4402 33.2846 45.7016 33.4316 45.9318C33.5787 46.165 33.7748 46.3495 34.02 46.4854C34.265 46.6248 34.5416 46.6949 34.8459 46.698C35.1506 46.6949 35.4273 46.6248 35.6725 46.4854C35.9175 46.3495 36.1136 46.165 36.2602 45.9318C36.4074 45.7016 36.4814 45.4402 36.4847 45.1512Z" fill="#4D4D4D"/>
<path d="M31.8553 59.7622V52.0492C31.8553 51.2371 31.68 50.5511 31.3262 49.9831C30.9728 49.4189 30.4335 48.9866 29.7088 48.6907C28.9809 48.3943 28.06 48.248 26.9392 48.2449C26.0082 48.248 25.1715 48.325 24.4292 48.4712C23.6868 48.6209 23.018 48.816 22.4233 49.0598V59.762H25.2797V50.7949C25.4727 50.7186 25.721 50.6555 26.0221 50.6035C26.32 50.5511 26.6419 50.5235 26.9819 50.5235C27.6364 50.5266 28.1298 50.6905 28.4693 51.0076C28.8055 51.3277 28.9771 51.77 28.9771 52.3417V59.762H31.8553V59.7622Z" fill="#4D4D4D"/>
<path d="M20.9024 59.1978V48.4956H18.0455V57.4216C17.8845 57.4872 17.6607 57.5435 17.3734 57.5954C17.0863 57.6443 16.7568 57.6686 16.386 57.6724C15.7561 57.6755 15.2798 57.5292 14.9578 57.2402C14.6355 56.9476 14.4745 56.5021 14.4745 55.8959V48.4956H11.6175V55.8328C11.6175 56.8048 11.7997 57.5992 12.1605 58.2152C12.5176 58.832 13.0532 59.2885 13.7603 59.5812C14.4676 59.8702 15.3425 60.0167 16.386 60.013C16.9776 60.013 17.5584 59.9784 18.1228 59.9083C18.6861 59.8388 19.2078 59.745 19.6842 59.6231C20.1637 59.5013 20.5699 59.358 20.9024 59.1978Z" fill="#4D4D4D"/>
</g>
<defs>
<linearGradient id="paint0_linear" x1="82.8262" y1="17.5292" x2="47.2509" y2="17.5292" gradientUnits="userSpaceOnUse">
<stop stop-color="#003D41"/>
<stop offset="1" stop-color="#8FC575"/>
</linearGradient>
<linearGradient id="paint1_linear" x1="13.0832" y1="17.5302" x2="41.4016" y2="17.5302" gradientUnits="userSpaceOnUse">
<stop stop-color="#7ED688"/>
<stop offset="1" stop-color="#C2F8A8"/>
</linearGradient>
<linearGradient id="paint2_linear" x1="61.6899" y1="17.5292" x2="41.2205" y2="17.5292" gradientUnits="userSpaceOnUse">
<stop stop-color="#005741"/>
<stop offset="1" stop-color="#8FC575"/>
</linearGradient>
<linearGradient id="paint3_linear" x1="34.6153" y1="17.5302" x2="49.5601" y2="17.5302" gradientUnits="userSpaceOnUse">
<stop stop-color="#65BD6F"/>
<stop offset="1" stop-color="#C2F8A8"/>
</linearGradient>
<linearGradient id="paint4_linear" x1="49.3922" y1="17.53" x2="45.3837" y2="17.53" gradientUnits="userSpaceOnUse">
<stop stop-color="#187041"/>
<stop offset="1" stop-color="#F5F8FF"/>
</linearGradient>
<linearGradient id="paint5_linear" x1="43.4169" y1="17.5302" x2="49.3915" y2="17.5302" gradientUnits="userSpaceOnUse">
<stop stop-color="#4BA354"/>
<stop offset="1" stop-color="#F6F6FB"/>
</linearGradient>
<clipPath id="clip0">
<path d="M0 0H92.8571V60H0V0Z" fill="white"/>
</clipPath>
</defs>
</svg>
