<svg width="58" height="38" viewBox="0 0 58 38" fill="none" xmlns="http://www.w3.org/2000/svg">
<path fill-rule="evenodd" clip-rule="evenodd" d="M18.4895 34.2396C22.5312 34.2396 26.4075 32.634 29.2655 29.776C32.1235 26.918 33.729 23.0418 33.729 19C33.729 14.9582 32.1235 11.082 29.2655 8.22398C26.4075 5.36601 22.5312 3.76041 18.4895 3.76041C14.4477 3.76041 10.5714 5.36601 7.71345 8.22398C4.85547 11.082 3.24988 14.9582 3.24988 19C3.24988 23.0418 4.85547 26.918 7.71345 29.776C10.5714 32.634 14.4477 34.2396 18.4895 34.2396Z" fill="#EB001B"/>
<path fill-rule="evenodd" clip-rule="evenodd" d="M37.8853 34.2396C41.9271 34.2396 45.8034 32.634 48.6613 29.776C51.5193 26.918 53.1249 23.0418 53.1249 19C53.1249 14.9582 51.5193 11.082 48.6613 8.22398C45.8034 5.36601 41.9271 3.76041 37.8853 3.76041C33.8435 3.76041 29.9673 5.36601 27.1093 8.22398C24.2513 11.082 22.6458 14.9582 22.6458 19C22.6458 23.0418 24.2513 26.918 27.1093 29.776C29.9673 32.634 33.8435 34.2396 37.8853 34.2396Z" fill="#F79E1B"/>
<path fill-rule="evenodd" clip-rule="evenodd" d="M28.1874 7.24368C26.4526 8.67214 25.0558 10.4673 24.0976 12.5001C23.1394 14.5328 22.6436 16.7527 22.6458 18.9999C22.6436 21.2472 23.1394 23.467 24.0976 25.4998C25.0558 27.5325 26.4526 29.3277 28.1874 30.7562C29.9223 29.3277 31.319 27.5325 32.2772 25.4998C33.2354 23.467 33.7313 21.2472 33.7291 18.9999C33.7313 16.7527 33.2354 14.5328 32.2772 12.5001C31.319 10.4673 29.9223 8.67214 28.1874 7.24368Z" fill="#FF5F00"/>
</svg>
