<svg width="58" height="58" viewBox="0 0 58 58" fill="none" xmlns="http://www.w3.org/2000/svg">
<path fill-rule="evenodd" clip-rule="evenodd" d="M47.8366 30.454C47.8366 37.5096 44.2276 43.841 38.4074 46.9735L37.073 47.6156C36.6346 47.8203 36.1513 47.9377 35.6823 47.9377C34.776 47.9377 34.0566 47.547 33.6254 46.8322C33.2821 46.241 33.1871 45.6042 33.3219 44.8748C33.5243 43.8649 34.2988 43.3569 34.5277 43.2301C37.9589 41.6457 40.166 38.0873 40.166 34.1486V23.8566C40.166 19.9169 37.967 16.3626 34.5726 14.7958C34.5645 14.7875 33.5518 14.2961 33.3219 13.1242C33.1871 12.3938 33.2821 11.7558 33.6254 11.1699C34.0566 10.4634 34.776 10.0634 35.6823 10.0634C36.1513 10.0634 36.6346 10.1704 37.073 10.3813C37.073 10.3813 38.3267 10.987 38.3788 11.0068C44.2235 14.1579 47.8366 20.4925 47.8366 27.5449V30.454ZM22.5184 43.2301C22.7473 43.3569 23.5259 43.8649 23.7293 44.8748C23.8652 45.6042 23.7732 46.241 23.4238 46.8322C22.9956 47.547 22.2753 47.9377 21.3659 47.9377C20.9009 47.9377 20.4217 47.8203 19.9742 47.6156L18.6407 46.9735C12.8216 43.841 9.21051 37.5096 9.21051 30.454V27.5449C9.21051 20.4925 12.8338 14.1579 18.6673 11.0068C18.7235 10.987 19.9742 10.3813 19.9742 10.3813C20.4217 10.1704 20.9009 10.0634 21.3618 10.0634C22.2691 10.0634 22.9956 10.4634 23.4238 11.1699C23.7732 11.7558 23.8652 12.3938 23.7293 13.1242C23.4994 14.2961 22.4898 14.7875 22.4786 14.7958C19.0842 16.3626 16.8893 19.9169 16.8893 23.8566V34.1486C16.8893 38.0873 19.0872 41.6457 22.5184 43.2301ZM28.5236 0C12.7725 0 0 12.9849 0 28.9984C0 45.0151 12.7725 58 28.5236 58C44.2746 58 57.0492 45.0151 57.0492 28.9984C57.0492 12.9849 44.2746 0 28.5236 0Z" fill="white"/>
</svg>
