<svg width="58" height="38" viewBox="0 0 58 38" fill="none" xmlns="http://www.w3.org/2000/svg">
<path fill-rule="evenodd" clip-rule="evenodd" d="M19.2395 34.2396C23.2812 34.2396 27.1575 32.634 30.0155 29.776C32.8735 26.918 34.479 23.0418 34.479 19C34.479 14.9582 32.8735 11.082 30.0155 8.22398C27.1575 5.36601 23.2812 3.76041 19.2395 3.76041C15.1977 3.76041 11.3214 5.36601 8.46345 8.22398C5.60547 11.082 3.99988 14.9582 3.99988 19C3.99988 23.0418 5.60547 26.918 8.46345 29.776C11.3214 32.634 15.1977 34.2396 19.2395 34.2396Z" fill="#D2222B"/>
<path fill-rule="evenodd" clip-rule="evenodd" d="M38.6353 34.2396C42.6771 34.2396 46.5534 32.634 49.4113 29.776C52.2693 26.918 53.8749 23.0418 53.8749 19C53.8749 14.9582 52.2693 11.082 49.4113 8.22398C46.5534 5.36601 42.6771 3.76041 38.6353 3.76041C34.5935 3.76041 30.7173 5.36601 27.8593 8.22398C25.0013 11.082 23.3958 14.9582 23.3958 19C23.3958 23.0418 25.0013 26.918 27.8593 29.776C30.7173 32.634 34.5935 34.2396 38.6353 34.2396Z" fill="#00A3D4"/>
<path fill-rule="evenodd" clip-rule="evenodd" d="M28.9374 7.24368C27.2026 8.67214 25.8058 10.4673 24.8476 12.5001C23.8894 14.5328 23.3936 16.7527 23.3958 18.9999C23.3936 21.2472 23.8894 23.467 24.8476 25.4998C25.8058 27.5325 27.2026 29.3277 28.9374 30.7562C30.6723 29.3277 32.069 27.5325 33.0272 25.4998C33.9854 23.467 34.4813 21.2472 34.4791 18.9999C34.4813 16.7527 33.9854 14.5328 33.0272 12.5001C32.069 10.4673 30.6723 8.67214 28.9374 7.24368Z" fill="#6F6FA5"/>
</svg>
