<svg width="52" height="50" viewBox="0 0 52 50" fill="none" xmlns="http://www.w3.org/2000/svg">
<path fill-rule="evenodd" clip-rule="evenodd" d="M35.4374 0C36.4675 0.439724 37.4661 0.950993 38.4259 1.53012L15.4861 14.7651L4.84705 8.63253C4.91536 8.54509 4.98367 8.45734 5.05198 8.36959C5.58137 7.68952 6.11076 7.00946 6.64015 6.4759L15.5519 11.5422L35.4374 0ZM43.1955 5.1506C42.4693 4.45971 41.7071 3.80819 40.9123 3.1988L15.5518 18.0361L3.32288 11C3.11632 11.3832 2.90826 11.7845 2.69119 12.2032C2.47486 12.6205 2.24959 13.055 2.00793 13.506L15.4144 21.3072L43.1955 5.1506ZM45.2695 7.30723C45.7537 8.07831 46.3036 8.84337 46.8594 9.60843L15.6893 27.8072L0.609314 19.006C0.676531 18.0544 0.877783 17.1173 1.20702 16.2229L15.5518 24.512L45.2695 7.30723ZM0.143099 22.0723L15.5518 30.9879L48.2461 12.0422C50.0887 15.6604 51.036 19.674 51.0075 23.741C51.0075 30.5575 48.3208 37.0949 43.5384 41.9149C38.7561 46.7349 32.2698 49.4428 25.5065 49.4428C18.7433 49.4428 12.257 46.7349 7.47467 41.9149C2.69232 37.0949 0.00562785 30.5575 0.00562785 23.741C-0.0171012 23.1811 0.029074 22.6207 0.143099 22.0723Z" fill="white"/>
</svg>
