<svg width="121" height="17" viewBox="0 0 121 17" fill="none" xmlns="http://www.w3.org/2000/svg">
<path d="M103.419 0.312404V1.30168C102.372 0.468606 101.057 0 99.6881 0C96.3061 0 93.5415 2.86371 93.5415 6.37825C93.5415 9.8928 96.2793 12.7565 99.6881 12.7565C101.057 12.7565 102.372 12.2879 103.419 11.4548V12.5482H106.237V0.312404H103.419ZM100.01 10.3614C97.9703 10.3614 96.3061 8.59112 96.3061 6.37825C96.3061 4.16539 97.9703 2.42113 100.01 2.42113C102.05 2.42113 103.714 4.19142 103.714 6.40429C103.714 8.61715 102.05 10.3614 100.01 10.3614ZM85.8112 0C84.4423 0 83.1003 0.468606 82.0535 1.35375V0.312404H79.2083V17H82.0266V11.4288C83.0734 12.2879 84.4155 12.7565 85.7844 12.7825C89.1664 12.7825 91.931 9.91884 91.931 6.40429C91.931 2.88974 89.2201 0 85.8112 0ZM85.4891 10.3614C83.4492 10.3614 81.7851 8.59112 81.7851 6.37825C81.7851 4.16539 83.4492 2.3951 85.4891 2.3951C87.5291 2.3951 89.1932 4.16539 89.1932 6.37825C89.1932 8.59112 87.5291 10.3614 85.4891 10.3614ZM118.235 0.312404L114.612 8.64319L110.747 0.312404H107.955L113.27 11.7672L110.988 17H113.753L121 0.312404H118.235ZM61.2784 2.00459L61.4126 10.075H61.3589L58.9164 2.00459H54.9707V12.1838H57.5743L57.4401 3.82695H57.4938L60.1242 12.1838H63.9088V2.00459H61.2784ZM11.3538 2.00459L9.39441 12.2879H12.2664L13.7158 2.94181H13.7695L15.1921 12.2879H18.0373L16.0779 2.00459H11.3538ZM27.378 2.00459L26.0628 9.86677H26.0091L24.7207 2.00459H20.3724L20.1309 12.2879H22.7882L22.8418 3.04594H22.8955L24.6939 12.2879H27.378L29.1495 3.04594H29.2032L29.2569 12.2879H31.9142L31.6726 2.00459H27.378ZM4.93878 9.37213C5.0193 9.63247 5.0193 9.8928 4.96562 10.1531C4.88509 10.4916 4.64352 10.83 3.91881 10.83C3.24778 10.83 2.84516 10.4655 2.84516 9.8928V8.87749H0V9.6585C0 11.9495 1.85204 12.6524 3.86513 12.6524C5.79769 12.6524 7.35448 12.0276 7.62289 10.3093C7.73026 9.7366 7.73026 9.18989 7.62289 8.61715C7.16659 6.45635 3.14042 5.83155 2.84516 4.60796C2.81832 4.42573 2.81832 4.24349 2.84516 4.06126C2.92569 3.72282 3.14042 3.35835 3.81145 3.35835C4.32143 3.30628 4.75089 3.67075 4.80457 4.13936C4.80457 4.19142 4.80457 4.24349 4.80457 4.29556V4.92037H7.46185V4.19142C7.46185 1.95253 5.39508 1.58806 3.89197 1.58806C2.01309 1.58806 0.4563 2.18683 0.187888 3.87902C0.0805235 4.34763 0.0805235 4.81623 0.187888 5.28484C0.617347 7.44564 4.37511 8.04441 4.93878 9.37213ZM39.4028 9.37213C39.4834 9.60643 39.4834 9.86677 39.4297 10.1271C39.3492 10.4655 39.1076 10.804 38.4097 10.804C37.7655 10.804 37.3629 10.4395 37.3629 9.8928V8.90352H34.5446V9.68453C34.5446 11.9495 36.3966 12.6263 38.356 12.6263C40.2618 12.6263 41.8185 12.0015 42.0601 10.3093C42.1675 9.76263 42.1675 9.18989 42.0601 8.64319C41.6038 6.53446 37.6045 5.88361 37.3361 4.68606C37.3092 4.50383 37.3092 4.34763 37.3361 4.16539C37.4166 3.82695 37.6313 3.48851 38.3024 3.48851C38.7855 3.43645 39.2418 3.80092 39.2686 4.26953C39.2686 4.32159 39.2686 4.34763 39.2686 4.39969V5.0245H41.8722V4.29556C41.8722 2.0827 39.8323 1.71822 38.3292 1.71822C36.4503 1.71822 34.9472 2.317 34.652 3.98315C34.5714 4.42573 34.5714 4.89433 34.6788 5.36294C35.1351 7.44564 38.866 8.04441 39.4028 9.37213ZM48.3141 10.7259C48.7973 10.7779 49.2267 10.4395 49.3341 9.99694C49.3609 9.86677 49.3609 9.7366 49.3609 9.60643V2.00459H52.045V9.37213C52.045 9.55436 52.0182 9.94487 52.0182 10.049C51.8303 11.9755 50.2735 12.6003 48.3141 12.6003C46.3547 12.6003 44.7979 11.9755 44.61 10.049C44.61 9.94487 44.5832 9.55436 44.5832 9.37213V2.00459H47.2673V9.60643C47.2673 9.7366 47.2673 9.86677 47.2941 9.99694C47.4015 10.4655 47.831 10.7779 48.3141 10.7259ZM70.4312 10.6217C71.2096 10.6217 71.478 10.1531 71.5049 9.8928C71.5317 9.76263 71.5317 9.63247 71.5317 9.5023V8.01838H70.4581V6.50842H74.2158V9.26799C74.2158 9.45023 74.2158 9.60643 74.189 9.94487C74.028 11.8193 72.337 12.4962 70.4581 12.4962C68.5792 12.4962 66.915 11.8193 66.7272 9.94487C66.7003 9.60643 66.7003 9.45023 66.7003 9.26799V4.92037C66.7003 4.68606 66.7272 4.47779 66.754 4.24349C66.9956 2.317 68.606 1.69219 70.4849 1.69219C72.3638 1.69219 74.0011 2.29096 74.2158 4.24349C74.2427 4.47779 74.2427 4.68606 74.2427 4.92037V5.25881H71.5586V4.68606C71.5586 4.5559 71.5586 4.42573 71.5317 4.29556C71.478 4.06126 71.2902 3.54058 70.4581 3.54058C69.9481 3.48851 69.5186 3.82695 69.4113 4.29556C69.3844 4.45176 69.3576 4.60796 69.3576 4.7902V9.5023C69.3576 9.63247 69.3576 9.76263 69.3844 9.8928C69.3844 10.1531 69.6528 10.6217 70.4312 10.6217Z" fill="white"/>
</svg>
