<svg width="16" height="17" viewBox="0 0 16 17" fill="none" xmlns="http://www.w3.org/2000/svg">
<path d="M2 4.48529H3.33333H14" stroke="#9395A4" stroke-width="1.5" stroke-linecap="round" stroke-linejoin="round"/>
<path d="M13.4166 4.4853C13.4166 4.07109 13.0808 3.7353 12.6666 3.7353C12.2524 3.7353 11.9166 4.07109 11.9166 4.4853H13.4166ZM4.08325 4.4853C4.08325 4.07109 3.74747 3.7353 3.33325 3.7353C2.91904 3.7353 2.58325 4.07109 2.58325 4.4853H4.08325ZM4.58325 4.4853C4.58325 4.89952 4.91904 5.2353 5.33325 5.2353C5.74747 5.2353 6.08325 4.89952 6.08325 4.4853H4.58325ZM9.91658 4.4853C9.91658 4.89952 10.2524 5.2353 10.6666 5.2353C11.0808 5.2353 11.4166 4.89952 11.4166 4.4853H9.91658ZM11.9166 4.4853V13.8186H13.4166V4.4853H11.9166ZM11.9166 13.8186C11.9166 14.1408 11.6554 14.402 11.3333 14.402V15.902C12.4838 15.902 13.4166 14.9692 13.4166 13.8186H11.9166ZM11.3333 14.402H4.66659V15.902H11.3333V14.402ZM4.66659 14.402C4.34442 14.402 4.08325 14.1408 4.08325 13.8186H2.58325C2.58325 14.9692 3.51599 15.902 4.66659 15.902V14.402ZM4.08325 13.8186V4.4853H2.58325V13.8186H4.08325ZM6.08325 4.4853V3.15197H4.58325V4.4853H6.08325ZM6.08325 3.15197C6.08325 2.8298 6.34442 2.56863 6.66658 2.56863V1.06863C5.51599 1.06863 4.58325 2.00138 4.58325 3.15197H6.08325ZM6.66658 2.56863H9.33325V1.06863H6.66658V2.56863ZM9.33325 2.56863C9.65541 2.56863 9.91658 2.8298 9.91658 3.15197H11.4166C11.4166 2.00138 10.4838 1.06863 9.33325 1.06863V2.56863ZM9.91658 3.15197V4.4853H11.4166V3.15197H9.91658Z" fill="#9395A4"/>
<path d="M6.66675 7.81863V11.8186" stroke="#9395A4" stroke-width="1.5" stroke-linecap="round" stroke-linejoin="round"/>
<path d="M9.33325 7.81863V11.8186" stroke="#9395A4" stroke-width="1.5" stroke-linecap="round" stroke-linejoin="round"/>
</svg>
